Lexend-LXND1.ufo
<glyph name="at" format="2">
  <advance width="1285"/>
  <unicode hex="0040"/>
  <note>
at
</note>
  <outline>
    <contour>
      <point x="1195" y="356" type="qcurve"/>
      <point x="1195" y="232"/>
      <point x="1008" y="56"/>
      <point x="889" y="56" type="qcurve"/>
      <point x="823" y="56"/>
      <point x="752" y="127"/>
      <point x="752" y="169" type="qcurve"/>
      <point x="760" y="223" type="line"/>
      <point x="774" y="203" type="line"/>
      <point x="736" y="137"/>
      <point x="592" y="56"/>
      <point x="519" y="56" type="qcurve"/>
      <point x="444" y="56"/>
      <point x="332" y="150"/>
      <point x="332" y="244" type="qcurve" smooth="yes"/>
      <point x="332" y="283"/>
      <point x="381" y="382"/>
      <point x="425" y="422" type="qcurve" smooth="yes"/>
      <point x="463" y="457"/>
      <point x="567" y="503"/>
      <point x="630" y="503" type="qcurve"/>
      <point x="710" y="503"/>
      <point x="809" y="437"/>
      <point x="825" y="401" type="qcurve"/>
      <point x="781" y="312" type="line"/>
      <point x="807" y="482" type="line"/>
      <point x="908" y="482" type="line"/>
      <point x="872" y="287" type="line"/>
      <point x="869" y="270" type="line" smooth="yes"/>
      <point x="860" y="210"/>
      <point x="884" y="146"/>
      <point x="920" y="146" type="qcurve"/>
      <point x="978" y="146"/>
      <point x="1092" y="267"/>
      <point x="1092" y="351" type="qcurve"/>
      <point x="1092" y="483"/>
      <point x="891" y="641"/>
      <point x="712" y="641" type="qcurve"/>
      <point x="486" y="641"/>
      <point x="194" y="414"/>
      <point x="194" y="199" type="qcurve"/>
      <point x="194" y="74"/>
      <point x="376" y="-87"/>
      <point x="507" y="-87" type="qcurve"/>
      <point x="558" y="-87"/>
      <point x="632" y="-77"/>
      <point x="661" y="-68" type="qcurve" smooth="yes"/>
      <point x="688" y="-60"/>
      <point x="736" y="-39"/>
      <point x="762" y="-27" type="qcurve"/>
      <point x="799" y="-109" type="line"/>
      <point x="735" y="-137"/>
      <point x="601" y="-182"/>
      <point x="504" y="-182" type="qcurve"/>
      <point x="326" y="-182"/>
      <point x="90" y="45"/>
      <point x="90" y="196" type="qcurve"/>
      <point x="90" y="313"/>
      <point x="179" y="504"/>
      <point x="256" y="573" type="qcurve" smooth="yes"/>
      <point x="341" y="648"/>
      <point x="580" y="730"/>
      <point x="716" y="730" type="qcurve"/>
      <point x="950" y="730"/>
      <point x="1195" y="509"/>
    </contour>
    <contour>
      <point x="454" y="250" type="qcurve" smooth="yes"/>
      <point x="454" y="207"/>
      <point x="517" y="156"/>
      <point x="560" y="156" type="qcurve" smooth="yes"/>
      <point x="625" y="156"/>
      <point x="734" y="219"/>
      <point x="756" y="272" type="qcurve" smooth="yes"/>
      <point x="760" y="283"/>
      <point x="767" y="309"/>
      <point x="768" y="322" type="qcurve" smooth="yes"/>
      <point x="772" y="367"/>
      <point x="703" y="416"/>
      <point x="645" y="416" type="qcurve"/>
      <point x="557" y="416"/>
      <point x="454" y="307"/>
    </contour>
  </outline>
</glyph>
<glyph name="G" format="2">
  <advance width="1082"/>
  <unicode hex="0047"/>
  <note>
G
</note>
  <anchor x="541" y="0" name="bottom"/>
  <anchor x="541" y="700" name="top"/>
  <outline>
    <contour>
      <point x="128" y="350" type="qcurve"/>
      <point x="128" y="501"/>
      <point x="379" y="706"/>
      <point x="560" y="706" type="qcurve" smooth="yes"/>
      <point x="673" y="706"/>
      <point x="849" y="633"/>
      <point x="892" y="587" type="qcurve"/>
      <point x="822" y="508" type="line"/>
      <point x="768" y="549"/>
      <point x="635" y="601"/>
      <point x="560" y="601" type="qcurve" smooth="yes"/>
      <point x="426" y="601"/>
      <point x="243" y="457"/>
      <point x="243" y="350" type="qcurve"/>
      <point x="243" y="217"/>
      <point x="434" y="95"/>
      <point x="553" y="95" type="qcurve" smooth="yes"/>
      <point x="675" y="95"/>
      <point x="842" y="184"/>
      <point x="842" y="253" type="qcurve"/>
      <point x="841" y="266" type="line"/>
      <point x="857" y="244" type="line"/>
      <point x="558" y="244" type="line"/>
      <point x="558" y="349" type="line"/>
      <point x="958" y="349" type="line"/>
      <point x="959" y="338"/>
      <point x="962" y="314"/>
      <point x="962" y="303" type="qcurve" smooth="yes"/>
      <point x="962.0" y="144.68400945994455"/>
      <point x="729.1542677770991" y="-10.0"/>
      <point x="544" y="-10" type="qcurve"/>
      <point x="378" y="-10"/>
      <point x="128" y="172"/>
    </contour>
  </outline>
</glyph>
<glyph name="K" format="2">
  <advance width="1071"/>
  <unicode hex="004B"/>
  <note>
K
</note>
  <anchor x="536" y="0" name="bottom"/>
  <anchor x="536" y="700" name="top"/>
  <outline>
    <contour>
      <point x="182" y="0" type="line"/>
      <point x="182" y="700" type="line"/>
      <point x="290" y="700" type="line"/>
      <point x="290" y="0" type="line"/>
    </contour>
    <contour>
      <point x="259" y="174" type="line"/>
      <point x="259" y="297" type="line"/>
      <point x="775" y="700" type="line"/>
      <point x="935" y="700" type="line"/>
    </contour>
    <contour>
      <point x="777" y="0" type="line"/>
      <point x="470" y="379" type="line"/>
      <point x="537" y="465" type="line"/>
      <point x="921" y="0" type="line"/>
    </contour>
  </outline>
</glyph>
<glyph name="N" format="2">
  <advance width="1121"/>
  <unicode hex="004E"/>
  <note>
N
</note>
  <outline>
    <contour>
      <point x="831" y="470" type="qcurve"/>
      <point x="831" y="700" type="line"/>
      <point x="939" y="700" type="line"/>
      <point x="939" y="0" type="line"/>
      <point x="830" y="0" type="line"/>
      <point x="269" y="552" type="line"/>
      <point x="270" y="566" type="line"/>
      <point x="276" y="497"/>
      <point x="290" y="360"/>
      <point x="290" y="291" type="qcurve"/>
      <point x="290" y="0" type="line"/>
      <point x="182" y="0" type="line"/>
      <point x="182" y="700" type="line"/>
      <point x="289" y="700" type="line"/>
      <point x="857" y="127" type="line"/>
      <point x="851" y="118" type="line"/>
      <point x="839" y="193"/>
      <point x="831" y="388"/>
    </contour>
  </outline>
</glyph>
<glyph name="P" format="2">
  <advance width="953"/>
  <unicode hex="0050"/>
  <note>
P
</note>
  <outline>
    <contour>
      <point x="182" y="700" type="line"/>
      <point x="591" y="700" type="line" smooth="yes"/>
      <point x="683" y="700"/>
      <point x="818" y="575"/>
      <point x="818" y="485" type="qcurve" smooth="yes"/>
      <point x="818" y="390"/>
      <point x="671" y="258"/>
      <point x="571" y="258" type="qcurve" smooth="yes"/>
      <point x="282" y="258" type="line"/>
      <point x="290" y="282" type="line"/>
      <point x="290" y="0" type="line"/>
      <point x="182" y="0" type="line"/>
    </contour>
    <contour>
      <point x="281" y="362" type="line"/>
      <point x="561" y="362" type="line" smooth="yes"/>
      <point x="618" y="362"/>
      <point x="703" y="435"/>
      <point x="703" y="485" type="qcurve" smooth="yes"/>
      <point x="703" y="531"/>
      <point x="618" y="596"/>
      <point x="561" y="596" type="qcurve" smooth="yes"/>
      <point x="281" y="596" type="line"/>
      <point x="290" y="621" type="line"/>
      <point x="290" y="348" type="line"/>
    </contour>
  </outline>
</glyph>
<glyph name="V" format="2">
  <advance width="952"/>
  <unicode hex="0056"/>
  <note>
V
</note>
  <anchor x="476" y="0" name="bottom"/>
  <anchor x="476" y="700" name="top"/>
  <outline>
    <contour>
      <point x="415" y="0" type="line"/>
      <point x="92" y="700" type="line"/>
      <point x="214" y="700" type="line"/>
      <point x="401" y="283" type="line" smooth="yes"/>
      <point x="423" y="234"/>
      <point x="483" y="109"/>
      <point x="499" y="61" type="qcurve"/>
      <point x="467" y="60" type="line"/>
      <point x="485" y="109"/>
      <point x="540" y="232"/>
      <point x="560" y="281" type="qcurve" smooth="yes"/>
      <point x="733" y="700" type="line"/>
      <point x="860" y="700" type="line"/>
      <point x="545" y="0" type="line"/>
    </contour>
  </outline>
</glyph>
<glyph name="a" format="2">
  <advance width="984"/>
  <unicode hex="0061"/>
  <note>
a
</note>
  <anchor x="462" y="0" name="bottom"/>
  <anchor x="904" y="10" name="ogonek"/>
  <anchor x="502" y="525" name="top"/>
  <outline>
    <contour>
      <point x="681" y="525" type="line"/>
      <point x="784" y="525" type="line"/>
      <point x="784" y="0" type="line"/>
      <point x="681" y="0" type="line"/>
      <point x="681" y="145" type="line"/>
      <point x="701" y="137" type="line"/>
      <point x="701" y="91"/>
      <point x="538" y="-10"/>
      <point x="432" y="-10" type="qcurve"/>
      <point x="289" y="-10"/>
      <point x="120" y="144"/>
      <point x="120" y="263" type="qcurve"/>
      <point x="120" y="382"/>
      <point x="298" y="536"/>
      <point x="438" y="536" type="qcurve"/>
      <point x="554" y="536"/>
      <point x="711" y="438"/>
      <point x="711" y="391" type="qcurve"/>
      <point x="681" y="389" type="line"/>
    </contour>
    <contour>
      <point x="225" y="263" type="qcurve"/>
      <point x="225" y="187"/>
      <point x="354" y="85"/>
      <point x="455" y="85" type="qcurve"/>
      <point x="557" y="85"/>
      <point x="685" y="187"/>
      <point x="685" y="263" type="qcurve"/>
      <point x="685" y="338"/>
      <point x="557" y="440"/>
      <point x="455" y="440" type="qcurve"/>
      <point x="354" y="440"/>
      <point x="225" y="338"/>
    </contour>
  </outline>
</glyph>
<glyph name="e" format="2">
  <advance width="931"/>
  <unicode hex="0065"/>
  <note>
e
</note>
  <outline>
    <contour>
      <point x="717" y="147" type="qcurve"/>
      <point x="762" y="69" type="line"/>
      <point x="717" y="38"/>
      <point x="561" y="-10"/>
      <point x="477" y="-10" type="qcurve"/>
      <point x="320" y="-10"/>
      <point x="120" y="141"/>
      <point x="120" y="257" type="qcurve"/>
      <point x="120" y="388"/>
      <point x="328" y="536"/>
      <point x="468" y="537" type="qcurve"/>
      <point x="599" y="536"/>
      <point x="786" y="395"/>
      <point x="786" y="282" type="qcurve"/>
      <point x="785" y="228" type="line"/>
      <point x="216" y="228" type="line"/>
      <point x="193" y="310" type="line"/>
      <point x="696" y="310" type="line"/>
      <point x="681" y="303" type="line"/>
      <point x="681" y="327" type="line"/>
      <point x="673" y="378"/>
      <point x="546" y="442"/>
      <point x="468" y="442" type="qcurve"/>
      <point x="365" y="442"/>
      <point x="222" y="362"/>
      <point x="222" y="264" type="qcurve"/>
      <point x="222" y="183"/>
      <point x="375" y="86"/>
      <point x="497" y="86" type="qcurve"/>
      <point x="578" y="86"/>
      <point x="684" y="128"/>
    </contour>
  </outline>
</glyph>
<glyph name="g" format="2">
  <advance width="1001"/>
  <unicode hex="0067"/>
  <note>
g
</note>
  <outline>
    <contour>
      <point x="240" y="-167" type="qcurve"/>
      <point x="276" y="-81" type="line"/>
      <point x="309" y="-97"/>
      <point x="421" y="-138"/>
      <point x="499" y="-138" type="qcurve"/>
      <point x="586" y="-138"/>
      <point x="698" y="-35"/>
      <point x="698" y="60" type="qcurve"/>
      <point x="698" y="121" type="line"/>
      <point x="709" y="114" type="line"/>
      <point x="699" y="71"/>
      <point x="537" y="-10"/>
      <point x="434" y="-10" type="qcurve"/>
      <point x="298" y="-10"/>
      <point x="130" y="144"/>
      <point x="130" y="263" type="qcurve" smooth="yes"/>
      <point x="130" y="382"/>
      <point x="309" y="536"/>
      <point x="451" y="536" type="qcurve"/>
      <point x="566" y="536"/>
      <point x="720" y="444"/>
      <point x="720" y="410" type="qcurve"/>
      <point x="698" y="402" type="line"/>
      <point x="698" y="525" type="line"/>
      <point x="801" y="525" type="line"/>
      <point x="801" y="72" type="line"/>
      <point x="801" y="-82"/>
      <point x="614" y="-230"/>
      <point x="499" y="-230" type="qcurve"/>
      <point x="408" y="-230"/>
      <point x="279" y="-192"/>
    </contour>
    <contour>
      <point x="702" y="263" type="qcurve"/>
      <point x="702" y="340"/>
      <point x="576" y="442"/>
      <point x="475" y="442" type="qcurve"/>
      <point x="371" y="442"/>
      <point x="235" y="339"/>
      <point x="235" y="263" type="qcurve"/>
      <point x="235" y="187"/>
      <point x="371" y="85"/>
      <point x="475" y="85" type="qcurve"/>
      <point x="576" y="85"/>
      <point x="702" y="186"/>
    </contour>
  </outline>
</glyph>
<glyph name="r" format="2">
  <advance width="781"/>
  <unicode hex="0072"/>
  <note>
r
</note>
  <outline>
    <contour>
      <point x="661" y="506" type="qcurve"/>
      <point x="634" y="400" type="line"/>
      <point x="612" y="413"/>
      <point x="547" y="428"/>
      <point x="519" y="428" type="qcurve" smooth="yes"/>
      <point x="429" y="428"/>
      <point x="324" y="319"/>
      <point x="324" y="260" type="qcurve"/>
      <point x="324" y="0" type="line"/>
      <point x="220" y="0" type="line"/>
      <point x="220" y="525" type="line"/>
      <point x="324" y="525" type="line"/>
      <point x="324" y="334" type="line"/>
      <point x="294" y="340" type="line"/>
      <point x="317" y="421"/>
      <point x="456" y="536"/>
      <point x="534" y="536" type="qcurve"/>
      <point x="571" y="536"/>
      <point x="641" y="520"/>
    </contour>
  </outline>
</glyph>
<glyph name="s" format="2">
  <advance width="797"/>
  <unicode hex="0073"/>
  <note>
s
</note>
  <anchor x="391" y="0" name="bottom"/>
  <anchor x="411" y="525" name="top"/>
  <outline>
    <contour>
      <point x="120" y="91" type="qcurve"/>
      <point x="190" y="156" type="line"/>
      <point x="230" y="119"/>
      <point x="340" y="76"/>
      <point x="406" y="76" type="qcurve" smooth="yes"/>
      <point x="457" y="76"/>
      <point x="573" y="101"/>
      <point x="573" y="142" type="qcurve"/>
      <point x="573" y="176"/>
      <point x="458" y="206"/>
      <point x="384" y="217" type="qcurve" smooth="yes"/>
      <point x="280" y="235"/>
      <point x="132" y="294"/>
      <point x="132" y="384" type="qcurve" smooth="yes"/>
      <point x="132" y="454"/>
      <point x="286" y="536"/>
      <point x="399" y="536" type="qcurve"/>
      <point x="468" y="536"/>
      <point x="625" y="496"/>
      <point x="674" y="452" type="qcurve"/>
      <point x="620" y="381" type="line"/>
      <point x="577" y="411"/>
      <point x="454" y="451"/>
      <point x="399" y="451" type="qcurve"/>
      <point x="349" y="451"/>
      <point x="235" y="426"/>
      <point x="235" y="388" type="qcurve"/>
      <point x="236" y="354"/>
      <point x="344" y="319"/>
      <point x="417" y="307" type="qcurve" smooth="yes"/>
      <point x="512" y="293"/>
      <point x="677" y="233"/>
      <point x="677" y="161" type="qcurve" smooth="yes"/>
      <point x="677" y="77"/>
      <point x="525" y="-10"/>
      <point x="418" y="-10" type="qcurve"/>
      <point x="326" y="-10"/>
      <point x="172" y="36"/>
    </contour>
  </outline>
</glyph>
<glyph name="u" format="2">
  <advance width="981"/>
  <unicode hex="0075"/>
  <note>
u
</note>
  <outline>
    <contour>
      <point x="476" y="93" type="qcurve" smooth="yes"/>
      <point x="558" y="93"/>
      <point x="678" y="192"/>
      <point x="678" y="279" type="qcurve" smooth="yes"/>
      <point x="678" y="525" type="line"/>
      <point x="781" y="525" type="line"/>
      <point x="781" y="0" type="line"/>
      <point x="678" y="0" type="line"/>
      <point x="678" y="110" type="line"/>
      <point x="696" y="122" type="line"/>
      <point x="676" y="76"/>
      <point x="540" y="-10"/>
      <point x="434" y="-10" type="qcurve" smooth="yes"/>
      <point x="330" y="-10"/>
      <point x="200" y="134"/>
      <point x="200" y="261" type="qcurve"/>
      <point x="200" y="525" type="line"/>
      <point x="303" y="525" type="line"/>
      <point x="303" y="299" type="line"/>
      <point x="303" y="197"/>
      <point x="385" y="93"/>
    </contour>
  </outline>
</glyph>
<glyph name="yen" format="2">
  <advance width="960"/>
  <unicode hex="00A5"/>
  <note>
yen
</note>
  <outline>
    <contour>
      <point x="748" y="73" type="line"/>
      <point x="256" y="75" type="line"/>
      <point x="256" y="176" type="line"/>
      <point x="748" y="174" type="line"/>
    </contour>
    <contour>
      <point x="748" y="228" type="line"/>
      <point x="256" y="230" type="line"/>
      <point x="256" y="331" type="line"/>
      <point x="748" y="329" type="line"/>
    </contour>
    <contour>
      <point x="746" y="700" type="line"/>
      <point x="880" y="700" type="line"/>
      <point x="539" y="263" type="line"/>
      <point x="544" y="321" type="line"/>
      <point x="544" y="0" type="line"/>
      <point x="436" y="0" type="line"/>
      <point x="436" y="313" type="line"/>
      <point x="456" y="236" type="line"/>
      <point x="80" y="700" type="line"/>
      <point x="230" y="700" type="line"/>
      <point x="503" y="347" type="line"/>
      <point x="480" y="347" type="line"/>
    </contour>
  </outline>
</glyph>
<glyph name="cedilla" format="2">
  <advance width="297"/>
  <unicode hex="00B8"/>
  <anchor x="141" y="0" name="_bottom"/>
  <outline>
    <contour>
      <point x="117" y="-97" type="line"/>
      <point x="62" y="-80" type="line"/>
      <point x="131" y="24" type="line"/>
      <point x="190" y="24" type="line"/>
    </contour>
    <contour>
      <point x="247" y="-139" type="qcurve" smooth="yes"/>
      <point x="247" y="-159"/>
      <point x="210" y="-209"/>
      <point x="172" y="-226" type="qcurve" smooth="yes"/>
      <point x="150" y="-235"/>
      <point x="93" y="-245"/>
      <point x="57" y="-244" type="qcurve"/>
      <point x="50" y="-196" type="line"/>
      <point x="89" y="-196"/>
      <point x="171" y="-165"/>
      <point x="171" y="-145" type="qcurve" smooth="yes"/>
      <point x="171" y="-134"/>
      <point x="127" y="-101"/>
      <point x="72" y="-100" type="qcurve"/>
      <point x="62" y="-82" type="line"/>
      <point x="62" y="-80" type="line"/>
      <point x="118" y="-41" type="line"/>
      <point x="164" y="-47"/>
      <point x="247" y="-89"/>
    </contour>
  </outline>
</glyph>
<glyph name="ae" format="2">
  <advance width="1366"/>
  <unicode hex="00E6"/>
  <note>
ae
</note>
  <outline>
    <contour>
      <point x="416" y="536" type="qcurve"/>
      <point x="500" y="536"/>
      <point x="668" y="473"/>
      <point x="668" y="388" type="qcurve"/>
      <point x="668" y="263" type="line"/>
      <point x="575" y="257" type="line"/>
      <point x="575" y="336" type="line"/>
      <point x="575" y="384"/>
      <point x="463" y="442"/>
      <point x="414" y="442" type="qcurve"/>
      <point x="359" y="442"/>
      <point x="247" y="411"/>
      <point x="200" y="374" type="qcurve"/>
      <point x="143" y="445" type="line"/>
      <point x="197" y="483"/>
      <point x="329" y="536"/>
    </contour>
    <contour>
      <point x="668" y="264" type="qcurve"/>
      <point x="668" y="169"/>
      <point x="839" y="80"/>
      <point x="946" y="80" type="qcurve" smooth="yes"/>
      <point x="1027" y="80"/>
      <point x="1132" y="115"/>
      <point x="1161" y="140" type="qcurve"/>
      <point x="1211" y="60" type="line"/>
      <point x="1178" y="35"/>
      <point x="1017" y="-10"/>
      <point x="936" y="-10" type="qcurve" smooth="yes"/>
      <point x="772" y="-10"/>
      <point x="575" y="141"/>
      <point x="575" y="257" type="qcurve"/>
      <point x="575" y="388"/>
      <point x="783" y="536"/>
      <point x="913" y="536" type="qcurve" smooth="yes"/>
      <point x="1041" y="535"/>
      <point x="1221" y="394"/>
      <point x="1221" y="281" type="qcurve"/>
      <point x="1220" y="237" type="line"/>
      <point x="413" y="237" type="line" smooth="yes"/>
      <point x="304" y="237"/>
      <point x="217" y="194"/>
      <point x="217" y="157" type="qcurve"/>
      <point x="217" y="114"/>
      <point x="309" y="78"/>
      <point x="372" y="78" type="qcurve"/>
      <point x="459" y="78"/>
      <point x="585" y="156"/>
      <point x="606" y="185" type="qcurve"/>
      <point x="646" y="116" type="line"/>
      <point x="615" y="82"/>
      <point x="475" y="-10"/>
      <point x="368" y="-10" type="qcurve"/>
      <point x="258" y="-10"/>
      <point x="120" y="67"/>
      <point x="120" y="149" type="qcurve"/>
      <point x="120" y="227"/>
      <point x="240" y="320"/>
      <point x="426" y="319" type="qcurve" smooth="yes"/>
      <point x="1131" y="319" type="line"/>
      <point x="1116" y="302" type="line"/>
      <point x="1116" y="326" type="line"/>
      <point x="1108" y="381"/>
      <point x="987" y="446"/>
      <point x="913" y="446" type="qcurve"/>
      <point x="817" y="446"/>
      <point x="668" y="371"/>
    </contour>
  </outline>
</glyph>
<glyph name="Aogonek" format="2">
  <advance width="987"/>
  <unicode hex="0104"/>
  <outline>
    <contour>
      <point x="841" y="0" type="line"/>
      <point x="771" y="0" type="line"/>
      <point x="546" y="462" type="line" smooth="yes"/>
      <point x="538" y="478"/>
      <point x="523" y="508"/>
      <point x="516" y="523" type="qcurve" smooth="yes"/>
      <point x="507" y="544"/>
      <point x="488" y="589"/>
      <point x="478" y="617" type="qcurve"/>
      <point x="510" y="618" type="line"/>
      <point x="498" y="586"/>
      <point x="476" y="535"/>
      <point x="465" y="511" type="qcurve" smooth="yes"/>
      <point x="459" y="498"/>
      <point x="446" y="472"/>
      <point x="439" y="458" type="qcurve" smooth="yes"/>
      <point x="216" y="0" type="line"/>
      <point x="92" y="0" type="line"/>
      <point x="427" y="700" type="line"/>
      <point x="567" y="700" type="line"/>
      <point x="885" y="32" type="line"/>
      <point x="879" y="0" type="line"/>
      <point x="830" y="-19"/>
      <point x="744" y="-72"/>
      <point x="744" y="-100" type="qcurve" smooth="yes"/>
      <point x="744" y="-117"/>
      <point x="771" y="-144"/>
      <point x="791" y="-144" type="qcurve" smooth="yes"/>
      <point x="806" y="-144"/>
      <point x="840" y="-129"/>
      <point x="856" y="-118" type="qcurve"/>
      <point x="895" y="-177" type="line"/>
      <point x="870" y="-194"/>
      <point x="807" y="-221"/>
      <point x="771" y="-221" type="qcurve" smooth="yes"/>
      <point x="721" y="-221"/>
      <point x="651" y="-162"/>
      <point x="651" y="-114" type="qcurve" smooth="yes"/>
      <point x="651" y="-61"/>
      <point x="766" y="36"/>
      <point x="826" y="52" type="qcurve"/>
    </contour>
    <contour>
      <point x="502" y="164" type="line"/>
      <point x="241" y="164" type="line"/>
      <point x="284" y="278" type="line"/>
      <point x="502" y="278" type="line"/>
    </contour>
    <contour>
      <point x="696" y="164" type="line"/>
      <point x="502" y="164" type="line"/>
      <point x="502" y="278" type="line"/>
      <point x="679" y="278" type="line"/>
    </contour>
  </outline>
</glyph>
<glyph name="eogonek" format="2">
  <advance width="931"/>
  <unicode hex="0119"/>
  <note>
eogonek
</note>
  <outline>
    <contour>
      <point x="646" y="52" type="qcurve"/>
      <point x="692" y="50" type="line"/>
      <point x="659" y="31"/>
      <point x="558" y="-10"/>
      <point x="477" y="-10" type="qcurve" smooth="yes"/>
      <point x="320" y="-10"/>
      <point x="120" y="141"/>
      <point x="120" y="257" type="qcurve"/>
      <point x="120" y="388"/>
      <point x="328" y="536"/>
      <point x="468" y="537" type="qcurve"/>
      <point x="599" y="536"/>
      <point x="786" y="395"/>
      <point x="786" y="282" type="qcurve"/>
      <point x="785" y="228" type="line"/>
      <point x="216" y="228" type="line"/>
      <point x="193" y="310" type="line"/>
      <point x="696" y="310" type="line"/>
      <point x="681" y="303" type="line"/>
      <point x="681" y="327" type="line"/>
      <point x="673" y="378"/>
      <point x="546" y="442"/>
      <point x="468" y="442" type="qcurve"/>
      <point x="365" y="442"/>
      <point x="222" y="362"/>
      <point x="222" y="264" type="qcurve"/>
      <point x="222" y="182"/>
      <point x="375" y="84"/>
      <point x="497" y="84" type="qcurve"/>
      <point x="578" y="84"/>
      <point x="679" y="130"/>
      <point x="712" y="149" type="qcurve"/>
      <point x="763" y="69" type="line"/>
      <point x="739" y="51"/>
      <point x="692" y="18"/>
      <point x="673" y="2" type="qcurve" smooth="yes"/>
      <point x="648" y="-19"/>
      <point x="616" y="-64"/>
      <point x="616" y="-90" type="qcurve" smooth="yes"/>
      <point x="616" y="-111"/>
      <point x="643" y="-144"/>
      <point x="665" y="-144" type="qcurve" smooth="yes"/>
      <point x="678" y="-144"/>
      <point x="712" y="-129"/>
      <point x="728" y="-118" type="qcurve"/>
      <point x="767" y="-177" type="line"/>
      <point x="742" y="-194"/>
      <point x="679" y="-221"/>
      <point x="643" y="-221" type="qcurve" smooth="yes"/>
      <point x="593" y="-221"/>
      <point x="523" y="-165"/>
      <point x="523" y="-108" type="qcurve" smooth="yes"/>
      <point x="523" y="-61"/>
      <point x="596" y="12"/>
    </contour>
  </outline>
</glyph>
<glyph name="Hbar" format="2">
  <advance width="1196"/>
  <unicode hex="0126"/>
  <note>
Hbar
</note>
  <outline>
    <contour>
      <point x="233" y="468" type="line"/>
      <point x="87" y="468" type="line"/>
      <point x="87" y="572" type="line"/>
      <point x="243" y="572" type="line"/>
      <point x="289" y="562" type="line"/>
      <point x="894" y="562" type="line"/>
      <point x="930" y="572" type="line"/>
      <point x="1109" y="572" type="line"/>
      <point x="1109" y="468" type="line"/>
      <point x="937" y="468" type="line"/>
      <point x="906" y="478" type="line"/>
      <point x="279" y="478" type="line"/>
    </contour>
    <contour>
      <point x="230" y="700" type="line"/>
      <point x="338" y="700" type="line"/>
      <point x="338" y="0" type="line"/>
      <point x="230" y="0" type="line"/>
    </contour>
    <contour>
      <point x="827" y="700" type="line"/>
      <point x="935" y="700" type="line"/>
      <point x="935" y="0" type="line"/>
      <point x="827" y="0" type="line"/>
    </contour>
    <contour>
      <point x="277" y="293" type="line"/>
      <point x="278" y="397" type="line"/>
      <point x="875" y="397" type="line"/>
      <point x="875" y="293" type="line"/>
    </contour>
  </outline>
</glyph>
<glyph name="iogonek" format="2">
  <advance width="523"/>
  <unicode hex="012F"/>
  <note>
iogonek
</note>
  <outline>
    <contour>
      <point x="233" y="35" type="qcurve"/>
      <point x="200" y="-35" type="line"/>
      <point x="200" y="525" type="line"/>
      <point x="323" y="525" type="line"/>
      <point x="323" y="0" type="line"/>
      <point x="283" y="-9"/>
      <point x="215" y="-58"/>
      <point x="215" y="-87" type="qcurve" smooth="yes"/>
      <point x="215" y="-103"/>
      <point x="233" y="-123"/>
      <point x="249" y="-123" type="qcurve" smooth="yes"/>
      <point x="262" y="-123"/>
      <point x="280" y="-108"/>
      <point x="286" y="-98" type="qcurve"/>
      <point x="342" y="-138" type="line"/>
      <point x="334" y="-159"/>
      <point x="273" y="-200"/>
      <point x="233" y="-200" type="qcurve" smooth="yes"/>
      <point x="192" y="-200"/>
      <point x="124" y="-141"/>
      <point x="124" y="-97" type="qcurve" smooth="yes"/>
      <point x="124" y="-58"/>
      <point x="177" y="3"/>
    </contour>
    <contour>
      <point x="331" y="704" type="qcurve" smooth="yes"/>
      <point x="331" y="679"/>
      <point x="297" y="639"/>
      <point x="262" y="639" type="qcurve" smooth="yes"/>
      <point x="227" y="639"/>
      <point x="193" y="675"/>
      <point x="193" y="704" type="qcurve" smooth="yes"/>
      <point x="193" y="729"/>
      <point x="227" y="769"/>
      <point x="262" y="769" type="qcurve" smooth="yes"/>
      <point x="297" y="769"/>
      <point x="331" y="733"/>
    </contour>
  </outline>
</glyph>
<glyph name="dotaccentcomb" format="2">
  <unicode hex="0307"/>
  <anchor x="128" y="511" name="_top"/>
  <anchor x="128" y="751" name="top"/>
  <outline>
    <contour>
      <point x="198" y="690" type="qcurve" smooth="yes"/>
      <point x="198.0" y="665"/>
      <point x="164.07462686567163" y="625.0"/>
      <point x="129" y="625" type="qcurve" smooth="yes"/>
      <point x="93.92537313432837" y="625.0"/>
      <point x="60.0" y="660.8955223880597"/>
      <point x="60" y="690" type="qcurve" smooth="yes"/>
      <point x="60.0" y="714.6268656716418"/>
      <point x="93.92537313432837" y="755.0"/>
      <point x="129" y="755" type="qcurve" smooth="yes"/>
      <point x="164.07462686567163" y="755.0"/>
      <point x="198.0" y="719"/>
    </contour>
  </outline>
</glyph>
<glyph name="horncomb" format="2">
  <unicode hex="031B"/>
  <anchor x="76" y="458" name="_topright"/>
  <anchor x="159" y="525" name="topright"/>
  <outline>
    <contour>
      <point x="74" y="420" type="qcurve"/>
      <point x="74" y="502" type="line"/>
      <point x="115.7910447761194" y="502.0"/>
      <point x="162.0" y="556.2985074626865"/>
      <point x="162" y="616" type="qcurve"/>
      <point x="244" y="616" type="line"/>
      <point x="244.0" y="533.9104477611941"/>
      <point x="160.56716417910445" y="420.0"/>
    </contour>
  </outline>
</glyph>
<glyph name="dotbelowcomb" format="2">
  <unicode hex="0323"/>
  <anchor x="110" y="0" name="_bottom"/>
  <anchor x="119" y="-206" name="bottom"/>
  <outline>
    <contour>
      <point x="188" y="-141" type="qcurve" smooth="yes"/>
      <point x="188.0" y="-166"/>
      <point x="154.07462686567163" y="-206.0"/>
      <point x="119" y="-206" type="qcurve" smooth="yes"/>
      <point x="83.92537313432837" y="-206.0"/>
      <point x="50.0" y="-170.1044776119403"/>
      <point x="50" y="-141" type="qcurve" smooth="yes"/>
      <point x="50.0" y="-116.37313432835822"/>
      <point x="83.92537313432837" y="-76.0"/>
      <point x="119" y="-76" type="qcurve" smooth="yes"/>
      <point x="154.07462686567163" y="-76.0"/>
      <point x="188.0" y="-112"/>
    </contour>
  </outline>
</glyph>
<glyph name="commaaccentcomb" format="2">
  <unicode hex="0326"/>
  <anchor x="114" y="0" name="_bottom"/>
  <anchor x="114" y="-242" name="bottom"/>
  <outline>
    <contour>
      <point x="64" y="-242" type="qcurve"/>
      <point x="40" y="-200" type="line"/>
      <point x="60" y="-196"/>
      <point x="94" y="-164"/>
      <point x="94" y="-148" type="qcurve" smooth="yes"/>
      <point x="94" y="-138"/>
      <point x="81" y="-132"/>
      <point x="73" y="-130" type="qcurve" smooth="yes"/>
      <point x="63" y="-127"/>
      <point x="45" y="-114"/>
      <point x="45" y="-93" type="qcurve"/>
      <point x="45" y="-69"/>
      <point x="83" y="-44"/>
      <point x="110" y="-44" type="qcurve"/>
      <point x="137" y="-44"/>
      <point x="188" y="-81"/>
      <point x="188" y="-121" type="qcurve" smooth="yes"/>
      <point x="188" y="-173"/>
      <point x="90" y="-233"/>
    </contour>
  </outline>
</glyph>
<glyph name="ogonekcomb" format="2">
  <unicode hex="0328"/>
  <outline>
    <contour>
      <point x="139" y="-200" type="qcurve" smooth="yes"/>
      <point x="98" y="-200.0"/>
      <point x="30.0" y="-141"/>
      <point x="30" y="-97" type="qcurve" smooth="yes"/>
      <point x="30.0" y="-35"/>
      <point x="134" y="37"/>
      <point x="185" y="51" type="qcurve"/>
      <point x="229" y="44" type="line"/>
      <point x="229" y="0" type="line"/>
      <point x="189" y="-9"/>
      <point x="121.0" y="-58"/>
      <point x="121" y="-87" type="qcurve" smooth="yes"/>
      <point x="121.0" y="-103"/>
      <point x="139" y="-123.0"/>
      <point x="155" y="-123" type="qcurve" smooth="yes"/>
      <point x="168" y="-123.0"/>
      <point x="186" y="-108"/>
      <point x="192" y="-98" type="qcurve"/>
      <point x="248" y="-138" type="line"/>
      <point x="240" y="-159"/>
      <point x="179" y="-200.0"/>
    </contour>
  </outline>
</glyph>
<glyph name="hamza-ar" format="2">
  <advance width="591"/>
  <unicode hex="0621"/>
  <outline>
    <contour>
      <point x="93" y="0" type="line"/>
      <point x="93" y="88" type="line"/>
      <point x="484" y="88" type="line"/>
      <point x="484" y="0" type="line"/>
      <point x="319.82089552238807" y="0.0"/>
      <point x="136.0" y="66.92537313432837"/>
      <point x="136" y="152" type="qcurve" smooth="yes"/>
      <point x="136.0" y="219.16417910447763"/>
      <point x="251.2089552238806" y="295.0"/>
      <point x="343" y="295" type="qcurve" smooth="yes"/>
      <point x="391.5074626865672" y="295.0"/>
      <point x="486.34328358208955" y="272.65671641791045"/>
      <point x="505" y="254" type="qcurve"/>
      <point x="483" y="299" type="line"/>
      <point x="437" y="158" type="line"/>
      <point x="467" y="186" type="line"/>
      <point x="443.11940298507466" y="196.44776119402985"/>
      <point x="379.08955223880594" y="207.0"/>
      <point x="347" y="207" type="qcurve" smooth="yes"/>
      <point x="274.6119402985075" y="207.0"/>
      <point x="226.0" y="175.13432835820896"/>
      <point x="226" y="152" type="qcurve" smooth="yes"/>
      <point x="226.0" y="129.61194029850748"/>
      <point x="272.6119402985075" y="88.0"/>
      <point x="345" y="88" type="qcurve" smooth="yes"/>
      <point x="498" y="88" type="line"/>
      <point x="498" y="0" type="line"/>
      <point x="484" y="0" type="line"/>
    </contour>
  </outline>
</glyph>
<glyph name="hah-ar" format="2">
  <advance width="1220"/>
  <unicode hex="062D"/>
  <outline>
    <contour>
      <point x="1090" y="-304" type="qcurve"/>
      <point x="1043" y="-270" type="line"/>
      <point x="1096" y="-442" type="line"/>
      <point x="1117" y="-385" type="line"/>
      <point x="1022.9701492537314" y="-421.56716417910445"/>
      <point x="781.6119402985074" y="-456.0"/>
      <point x="654" y="-456" type="qcurve" smooth="yes"/>
      <point x="462.2089552238806" y="-456.0"/>
      <point x="174.0" y="-323.53731343283584"/>
      <point x="174" y="-181" type="qcurve" smooth="yes"/>
      <point x="174.0" y="-19.05970149253733"/>
      <point x="529.358208955224" y="196.52238805970148"/>
      <point x="901" y="251" type="qcurve"/>
      <point x="978" y="195" type="line"/>
      <point x="936.955223880597" y="195.0"/>
      <point x="554.1044776119403" y="319.0"/>
      <point x="425" y="319" type="qcurve" smooth="yes"/>
      <point x="354.85074626865674" y="319.0"/>
      <point x="271.34328358208955" y="262.4925373134328"/>
      <point x="240" y="211" type="qcurve"/>
      <point x="180" y="255" type="line"/>
      <point x="210.59701492537312" y="321.4179104477612"/>
      <point x="346.80597014925377" y="421.0"/>
      <point x="458" y="421" type="qcurve" smooth="yes"/>
      <point x="596.0597014925373" y="421.0"/>
      <point x="974.5820895522388" y="280.0"/>
      <point x="1041" y="280" type="qcurve"/>
      <point x="1041" y="195" type="line"/>
      <point x="676.8208955223881" y="125.59701492537314"/>
      <point x="278.0" y="-20.477611940298516"/>
      <point x="278" y="-166" type="qcurve" smooth="yes"/>
      <point x="278.0" y="-262.2686567164179"/>
      <point x="504.1641791044776" y="-354.0"/>
      <point x="687" y="-354" type="qcurve" smooth="yes"/>
      <point x="807.1492537313433" y="-354.0"/>
      <point x="1016.1194029850747" y="-329.3731343283582"/>
    </contour>
  </outline>
</glyph>
<glyph name="reh-ar" format="2">
  <advance width="830"/>
  <unicode hex="0631"/>
  <anchor x="297" y="-230" name="bottom"/>
  <anchor x="480" y="378" name="top"/>
  <outline>
    <contour>
      <point x="435" y="320" type="qcurve"/>
      <point x="509" y="413" type="line"/>
      <point x="587.3582089552239" y="307.02985074626866"/>
      <point x="656.0" y="159.35820895522386"/>
      <point x="656" y="81" type="qcurve" smooth="yes"/>
      <point x="656.0" y="-24.22388059701491"/>
      <point x="482.820895522388" y="-230.0"/>
      <point x="297" y="-230" type="qcurve" smooth="yes"/>
      <point x="211.92537313432837" y="-230.0"/>
      <point x="58.52238805970149" y="-190.53731343283582"/>
      <point x="13" y="-148" type="qcurve"/>
      <point x="3" y="-221" type="line"/>
      <point x="93" y="-51" type="line"/>
      <point x="43" y="-83" type="line"/>
      <point x="76.58208955223881" y="-99.41791044776119"/>
      <point x="186.97014925373134" y="-128.0"/>
      <point x="281" y="-128" type="qcurve" smooth="yes"/>
      <point x="413.8358208955224" y="-128.0"/>
      <point x="562.0" y="-10.044776119402982"/>
      <point x="562" y="81" type="qcurve" smooth="yes"/>
      <point x="562.0" y="120.55223880597015"/>
      <point x="509.6268656716418" y="228.2089552238806"/>
    </contour>
  </outline>
</glyph>
<glyph name="ain-ar" format="2">
  <advance width="993"/>
  <unicode hex="0639"/>
  <outline>
    <contour>
      <point x="722" y="51" type="line"/>
      <point x="497.3731343283582" y="23.38805970149254"/>
      <point x="162.0" y="-106.98507462686568"/>
      <point x="162" y="-204" type="qcurve" smooth="yes"/>
      <point x="162.0" y="-280.86567164179104"/>
      <point x="360.2985074626866" y="-354.0"/>
      <point x="520" y="-354" type="qcurve" smooth="yes"/>
      <point x="646.8656716417911" y="-354.0"/>
      <point x="850.2686567164179" y="-330.4179104477612"/>
      <point x="904" y="-314" type="qcurve"/>
      <point x="857" y="-280" type="line"/>
      <point x="904" y="-452" type="line"/>
      <point x="930" y="-403" type="line"/>
      <point x="841.9402985074627" y="-432.85074626865674"/>
      <point x="625.3582089552239" y="-456.0"/>
      <point x="497" y="-456" type="qcurve" smooth="yes"/>
      <point x="314.1641791044776" y="-456.0"/>
      <point x="58.0" y="-344.86567164179104"/>
      <point x="58" y="-218" type="qcurve" smooth="yes"/>
      <point x="58.0" y="-67.25373134328359"/>
      <point x="431.02985074626866" y="127.86567164179104"/>
      <point x="737" y="151" type="qcurve"/>
    </contour>
    <contour>
      <point x="399" y="5" type="qcurve"/>
      <point x="473" y="89" type="line"/>
      <point x="395.3880597014926" y="98.70149253731343"/>
      <point x="255.0" y="174.05970149253733"/>
      <point x="255" y="236" type="qcurve" smooth="yes"/>
      <point x="255.0" y="280.77611940298505"/>
      <point x="338.6865671641791" y="336.0"/>
      <point x="426" y="336" type="qcurve" smooth="yes"/>
      <point x="490.92537313432837" y="336.0"/>
      <point x="586.4328358208955" y="316.67164179104475"/>
      <point x="623" y="301" type="qcurve"/>
      <point x="586" y="267" type="line"/>
      <point x="649" y="430" type="line"/>
      <point x="670" y="385" type="line"/>
      <point x="629.7014925373135" y="408.88059701492534"/>
      <point x="505.1044776119403" y="438.0"/>
      <point x="426" y="438" type="qcurve" smooth="yes"/>
      <point x="296.14925373134326" y="438.0"/>
      <point x="151.0" y="324.05970149253733"/>
      <point x="151" y="236" type="qcurve" smooth="yes"/>
      <point x="151.0" y="152.4179104477612"/>
      <point x="280.34328358208955" y="40.07462686567164"/>
    </contour>
  </outline>
</glyph>
<glyph name="lam-ar" format="2">
  <advance width="1091"/>
  <unicode hex="0644"/>
  <anchor x="827" y="0" name="#entry"/>
  <anchor x="452" y="-230" name="bottom"/>
  <anchor x="463" y="438" name="top"/>
  <outline>
    <contour>
      <point x="879" y="124" type="line" smooth="yes"/>
      <point x="879.0" y="-45.402985074626855"/>
      <point x="660.4477611940298" y="-230.0"/>
      <point x="450" y="-230" type="qcurve" smooth="yes"/>
      <point x="280.5970149253732" y="-230.0"/>
      <point x="87.0" y="-80.73134328358208"/>
      <point x="87" y="23" type="qcurve" smooth="yes"/>
      <point x="87.0" y="67.02985074626865"/>
      <point x="113.16417910447761" y="176.11940298507463"/>
      <point x="146" y="250" type="qcurve"/>
      <point x="90" y="228" type="line"/>
      <point x="267" y="169" type="line"/>
      <point x="234" y="223" type="line"/>
      <point x="210.11940298507463" y="160.3134328358209"/>
      <point x="188.0" y="82.56716417910448"/>
      <point x="188" y="46" type="qcurve" smooth="yes"/>
      <point x="188.0" y="-40.567164179104466"/>
      <point x="348.82089552238807" y="-128.0"/>
      <point x="463" y="-128" type="qcurve" smooth="yes"/>
      <point x="601.0597014925373" y="-128.0"/>
      <point x="784.0" y="-14.940298507462671"/>
      <point x="784" y="97" type="qcurve" smooth="yes"/>
      <point x="784" y="740" type="line"/>
      <point x="879" y="740" type="line"/>
    </contour>
  </outline>
</glyph>
<glyph name="heh-ar" format="2">
  <advance width="752"/>
  <unicode hex="0647"/>
  <outline>
    <contour>
      <point x="288" y="436" type="qcurve"/>
      <point x="349" y="374" type="line"/>
      <point x="287.80597014925377" y="332.95522388059703"/>
      <point x="191.0" y="236.50746268656715"/>
      <point x="191" y="188" type="qcurve" smooth="yes"/>
      <point x="191.0" y="143.97014925373134"/>
      <point x="272.6119402985075" y="91.0"/>
      <point x="345" y="91" type="qcurve" smooth="yes"/>
      <point x="427.8358208955224" y="91.0"/>
      <point x="503.0" y="139.6865671641791"/>
      <point x="503" y="177" type="qcurve" smooth="yes"/>
      <point x="503.0" y="221.77611940298507"/>
      <point x="401.5970149253731" y="350.6865671641791"/>
      <point x="221" y="438" type="qcurve"/>
      <point x="274" y="534" type="line"/>
      <point x="482.2089552238806" y="422.05970149253733"/>
      <point x="607.0" y="247.88059701492537"/>
      <point x="607" y="174" type="qcurve" smooth="yes"/>
      <point x="607.0" y="90.4179104477612"/>
      <point x="468.88059701492534" y="-11.0"/>
      <point x="345" y="-11" type="qcurve" smooth="yes"/>
      <point x="230.07462686567163" y="-11.0"/>
      <point x="87.0" y="87.43283582089553"/>
      <point x="87" y="174" type="qcurve" smooth="yes"/>
      <point x="87.0" y="265.7910447761194"/>
      <point x="229.7910447761194" y="394.2089552238806"/>
    </contour>
  </outline>
</glyph>
<glyph name="waw-ar" format="2">
  <advance width="879"/>
  <unicode hex="0648"/>
  <anchor x="359" y="-230" name="bottom"/>
  <anchor x="420" y="388" name="top"/>
  <outline>
    <contour>
      <point x="676" y="90" type="qcurve" smooth="yes"/>
      <point x="676.0" y="-15.223880597014912"/>
      <point x="538.8507462686567" y="-230.0"/>
      <point x="359" y="-230" type="qcurve" smooth="yes"/>
      <point x="275.4179104477612" y="-230.0"/>
      <point x="140.01492537313433" y="-193.5820895522388"/>
      <point x="93" y="-160" type="qcurve"/>
      <point x="93" y="-221" type="line"/>
      <point x="175" y="-51" type="line"/>
      <point x="127" y="-79" type="line"/>
      <point x="160.5820895522388" y="-95.41791044776119"/>
      <point x="271.35820895522386" y="-128.0"/>
      <point x="343" y="-128" type="qcurve" smooth="yes"/>
      <point x="469.86567164179104" y="-128.0"/>
      <point x="584.0" y="-10.044776119402982"/>
      <point x="584" y="81" type="qcurve" smooth="yes"/>
      <point x="584.0" y="153.38805970149252"/>
      <point x="497.5820895522388" y="286.0"/>
      <point x="414" y="286" type="qcurve" smooth="yes"/>
      <point x="352.05970149253733" y="286.0"/>
      <point x="271.0" y="215.8059701492537"/>
      <point x="271" y="177" type="qcurve" smooth="yes"/>
      <point x="271.0" y="144.16417910447763"/>
      <point x="332.0" y="103.0"/>
      <point x="432" y="103" type="qcurve" smooth="yes"/>
      <point x="479.0149253731343" y="103.0"/>
      <point x="561.3880597014926" y="112.29850746268657"/>
      <point x="589" y="122" type="qcurve"/>
      <point x="640" y="46" type="line"/>
      <point x="601.9402985074627" y="23.611940298507463"/>
      <point x="481.6865671641791" y="1.0"/>
      <point x="419" y="1" type="qcurve" smooth="yes"/>
      <point x="280.94029850746267" y="1.0"/>
      <point x="176.0" y="93.56716417910448"/>
      <point x="176" y="157" type="qcurve" smooth="yes"/>
      <point x="176.0" y="256.25373134328356"/>
      <point x="320.74626865671644" y="388.0"/>
      <point x="420" y="388" type="qcurve" smooth="yes"/>
      <point x="536.4179104477612" y="388.0"/>
      <point x="676.0" y="225.07462686567163"/>
    </contour>
  </outline>
</glyph>
<glyph name="fatha-ar" format="2">
  <unicode hex="064E"/>
  <anchor x="154" y="525" name="_top"/>
  <anchor x="128" y="631" name="top"/>
  <outline>
    <contour>
      <point x="273" y="747" type="line"/>
      <point x="287" y="693" type="line"/>
      <point x="34" y="627" type="line"/>
      <point x="20" y="681" type="line"/>
    </contour>
  </outline>
</glyph>
<glyph name="two-ar" format="2">
  <advance width="779"/>
  <unicode hex="0662"/>
  <outline>
    <contour>
      <point x="336" y="0" type="line"/>
      <point x="232" y="0" type="line"/>
      <point x="232" y="372" type="line" smooth="yes"/>
      <point x="232.0" y="522.0"/>
      <point x="364.5223880597015" y="661.0"/>
      <point x="519" y="661" type="qcurve" smooth="yes"/>
      <point x="721" y="661" type="line"/>
      <point x="721" y="559" type="line"/>
      <point x="519" y="559" type="line" smooth="yes"/>
      <point x="409.2985074626866" y="559.0"/>
      <point x="336.0" y="480.95522388059703"/>
      <point x="336" y="372" type="qcurve" smooth="yes"/>
    </contour>
  </outline>
</glyph>
<glyph name="four-ar" format="2">
  <advance width="863"/>
  <unicode hex="0664"/>
  <outline>
    <contour>
      <point x="670" y="661" type="line"/>
      <point x="670" y="559" type="line"/>
      <point x="517" y="559" type="line" smooth="yes"/>
      <point x="422.22388059701495" y="559.0"/>
      <point x="340.0" y="504.2835820895522"/>
      <point x="340" y="461" type="qcurve" smooth="yes"/>
      <point x="340.0" y="427.4179104477612"/>
      <point x="388.17910447761193" y="368.7014925373134"/>
      <point x="424" y="359" type="qcurve"/>
      <point x="392" y="291" type="line"/>
      <point x="330.05970149253733" y="293.23880597014926"/>
      <point x="236.0" y="392.34328358208955"/>
      <point x="236" y="461" type="qcurve" smooth="yes"/>
      <point x="236.0" y="548.3134328358209"/>
      <point x="379.6865671641791" y="661.0"/>
      <point x="517" y="661" type="qcurve" smooth="yes"/>
    </contour>
    <contour>
      <point x="649" y="396" type="line"/>
      <point x="659" y="294" type="line"/>
      <point x="517" y="288" type="line" smooth="yes"/>
      <point x="413.2686567164179" y="283.5223880597015"/>
      <point x="324.0" y="228.26865671641792"/>
      <point x="324" y="182" type="qcurve" smooth="yes"/>
      <point x="324.0" y="135.73134328358208"/>
      <point x="426.17910447761193" y="95.0"/>
      <point x="512" y="95" type="qcurve" smooth="yes"/>
      <point x="555.2835820895523" y="95.0"/>
      <point x="669.6865671641791" y="104.80597014925374"/>
      <point x="707" y="116" type="qcurve"/>
      <point x="733" y="22" type="line"/>
      <point x="696.4328358208955" y="7.074626865671643"/>
      <point x="563.4925373134329" y="-7.0"/>
      <point x="512" y="-7" type="qcurve" smooth="yes"/>
      <point x="403.04477611940297" y="-7.0"/>
      <point x="220.0" y="67.3134328358209"/>
      <point x="220" y="180" type="qcurve" smooth="yes"/>
      <point x="220.0" y="271.7910447761194"/>
      <point x="369.6865671641791" y="383.02985074626866"/>
      <point x="507" y="389" type="qcurve" smooth="yes"/>
    </contour>
  </outline>
</glyph>
<glyph name="seven-ar" format="2">
  <advance width="733"/>
  <unicode hex="0667"/>
  <outline>
    <contour>
      <point x="58" y="661" type="line"/>
      <point x="173" y="661" type="line"/>
      <point x="395" y="4" type="line"/>
      <point x="335" y="4" type="line"/>
      <point x="557" y="661" type="line"/>
      <point x="675" y="661" type="line"/>
      <point x="425" y="0" type="line"/>
      <point x="305" y="0" type="line"/>
    </contour>
  </outline>
</glyph>
<glyph name="qafDotless-ar" format="2">
  <advance width="1120"/>
  <unicode hex="066F"/>
  <outline>
    <contour>
      <point x="188" y="38" type="qcurve" smooth="yes"/>
      <point x="188.0" y="-44.089552238805965"/>
      <point x="342.2089552238806" y="-128.0"/>
      <point x="484" y="-128" type="qcurve" smooth="yes"/>
      <point x="634.0" y="-128.0"/>
      <point x="825.0" y="-18.955223880597003"/>
      <point x="825" y="90" type="qcurve" smooth="yes"/>
      <point x="825.0" y="170.59701492537312"/>
      <point x="736.1194029850747" y="306.0"/>
      <point x="660" y="306" type="qcurve" smooth="yes"/>
      <point x="596.5671641791045" y="306.0"/>
      <point x="514.0" y="235.0597014925373"/>
      <point x="514" y="197" type="qcurve" smooth="yes"/>
      <point x="514.0" y="164.16417910447763"/>
      <point x="574.2388059701493" y="123.0"/>
      <point x="672" y="123" type="qcurve" smooth="yes"/>
      <point x="736.1791044776119" y="123.0"/>
      <point x="802.3880597014926" y="132.29850746268656"/>
      <point x="830" y="142" type="qcurve"/>
      <point x="881" y="66" type="line"/>
      <point x="842.9402985074627" y="43.61194029850746"/>
      <point x="738.8507462686567" y="21.0"/>
      <point x="659" y="21" type="qcurve" smooth="yes"/>
      <point x="523.179104477612" y="21.0"/>
      <point x="419.0" y="113.56716417910448"/>
      <point x="419" y="177" type="qcurve" smooth="yes"/>
      <point x="419.0" y="280.7313432835821"/>
      <point x="570.4776119402985" y="408.0"/>
      <point x="666" y="408" type="qcurve" smooth="yes"/>
      <point x="774.955223880597" y="408.0"/>
      <point x="917.0" y="248.1194029850746"/>
      <point x="917" y="122" type="qcurve" smooth="yes"/>
      <point x="917.0" y="-42.17910447761193"/>
      <point x="691.6567164179104" y="-230.0"/>
      <point x="473" y="-230" type="qcurve" smooth="yes"/>
      <point x="298.3731343283582" y="-230.0"/>
      <point x="87.0" y="-103.11940298507461"/>
      <point x="87" y="23" type="qcurve" smooth="yes"/>
      <point x="87.0" y="56.582089552238806"/>
      <point x="110.92537313432837" y="176.11940298507463"/>
      <point x="146" y="250" type="qcurve"/>
      <point x="90" y="228" type="line"/>
      <point x="267" y="169" type="line"/>
      <point x="234" y="223" type="line"/>
      <point x="210.86567164179104" y="168.52238805970148"/>
      <point x="188.0" y="72.32835820895522"/>
    </contour>
  </outline>
</glyph>
<glyph name="noonghunna-ar" format="2">
  <advance width="1082"/>
  <unicode hex="06BA"/>
  <anchor x="458" y="-230" name="bottom"/>
  <anchor x="458" y="253" name="top"/>
  <outline>
    <contour>
      <point x="188" y="43" type="qcurve" smooth="yes"/>
      <point x="188.0" y="-45.805970149253724"/>
      <point x="338.1641791044776" y="-128.0"/>
      <point x="471" y="-128" type="qcurve" smooth="yes"/>
      <point x="603.0895522388059" y="-128.0"/>
      <point x="784.0" y="-44.373134328358205"/>
      <point x="784" y="31" type="qcurve" smooth="yes"/>
      <point x="784.0" y="63.83582089552239"/>
      <point x="748.4925373134329" y="170.62686567164178"/>
      <point x="697" y="246" type="qcurve"/>
      <point x="777" y="342" type="line"/>
      <point x="845.6567164179105" y="242.0"/>
      <point x="879.0" y="91.7910447761194"/>
      <point x="879" y="50" type="qcurve" smooth="yes"/>
      <point x="879.0" y="-77.61194029850745"/>
      <point x="652.0298507462686" y="-230.0"/>
      <point x="458" y="-230" type="qcurve" smooth="yes"/>
      <point x="269.94029850746267" y="-230.0"/>
      <point x="87.0" y="-83.94029850746267"/>
      <point x="87" y="28" type="qcurve" smooth="yes"/>
      <point x="87.0" y="57.850746268656714"/>
      <point x="110.17910447761194" y="176.11940298507463"/>
      <point x="146" y="250" type="qcurve"/>
      <point x="90" y="228" type="line"/>
      <point x="267" y="169" type="line"/>
      <point x="234" y="223" type="line"/>
      <point x="207.88059701492537" y="168.52238805970148"/>
      <point x="188.0" y="73.59701492537313"/>
    </contour>
  </outline>
</glyph>
<glyph name="quoteleft" format="2">
  <advance width="341"/>
  <unicode hex="2018"/>
  <note>
quoteleft
</note>
  <outline>
    <contour>
      <point x="225" y="401" type="qcurve"/>
      <point x="174" y="401"/>
      <point x="90" y="484"/>
      <point x="90" y="543" type="qcurve" smooth="yes"/>
      <point x="90" y="603"/>
      <point x="207" y="722"/>
      <point x="273" y="751" type="qcurve"/>
      <point x="321" y="696" type="line"/>
      <point x="273" y="668"/>
      <point x="212" y="615"/>
      <point x="212" y="593" type="qcurve" smooth="yes"/>
      <point x="212" y="576"/>
      <point x="236" y="554"/>
      <point x="252" y="545" type="qcurve" smooth="yes"/>
      <point x="273" y="532"/>
      <point x="315" y="502"/>
      <point x="315" y="473" type="qcurve"/>
      <point x="315" y="436"/>
      <point x="262" y="401"/>
    </contour>
  </outline>
</glyph>
<glyph name="perthousand" format="2">
  <advance width="1612"/>
  <unicode hex="2030"/>
  <note>
perthousand
</note>
  <outline>
    <contour>
      <point x="457" y="488" type="qcurve"/>
      <point x="457" y="398"/>
      <point x="354" y="269"/>
      <point x="273" y="269" type="qcurve"/>
      <point x="189" y="269"/>
      <point x="90" y="397"/>
      <point x="90" y="488" type="qcurve"/>
      <point x="90" y="580"/>
      <point x="189" y="709"/>
      <point x="274" y="709" type="qcurve"/>
      <point x="358" y="709"/>
      <point x="457" y="580"/>
    </contour>
    <contour>
      <point x="193" y="488" type="qcurve"/>
      <point x="193" y="432"/>
      <point x="234" y="359"/>
      <point x="274" y="359" type="qcurve"/>
      <point x="313" y="359"/>
      <point x="353" y="434"/>
      <point x="353" y="488" type="qcurve"/>
      <point x="353" y="544"/>
      <point x="312" y="618"/>
      <point x="273" y="618" type="qcurve"/>
      <point x="234" y="618"/>
      <point x="193" y="542"/>
    </contour>
    <contour>
      <point x="1059" y="203" type="qcurve"/>
      <point x="1059" y="113"/>
      <point x="956" y="-16"/>
      <point x="875" y="-16" type="qcurve"/>
      <point x="791" y="-16"/>
      <point x="692" y="112"/>
      <point x="692" y="203" type="qcurve"/>
      <point x="692" y="295"/>
      <point x="791" y="424"/>
      <point x="876" y="424" type="qcurve"/>
      <point x="960" y="424"/>
      <point x="1059" y="295"/>
    </contour>
    <contour>
      <point x="795" y="203" type="qcurve"/>
      <point x="795" y="147"/>
      <point x="836" y="74"/>
      <point x="876" y="74" type="qcurve"/>
      <point x="915" y="74"/>
      <point x="955" y="149"/>
      <point x="955" y="203" type="qcurve"/>
      <point x="955" y="259"/>
      <point x="914" y="333"/>
      <point x="875" y="333" type="qcurve"/>
      <point x="836" y="333"/>
      <point x="795" y="257"/>
    </contour>
    <contour>
      <point x="1512" y="203" type="qcurve"/>
      <point x="1512" y="113"/>
      <point x="1409" y="-16"/>
      <point x="1328" y="-16" type="qcurve"/>
      <point x="1244" y="-16"/>
      <point x="1145" y="112"/>
      <point x="1145" y="203" type="qcurve"/>
      <point x="1145" y="295"/>
      <point x="1244" y="424"/>
      <point x="1329" y="424" type="qcurve"/>
      <point x="1413" y="424"/>
      <point x="1512" y="295"/>
    </contour>
    <contour>
      <point x="1248" y="203" type="qcurve"/>
      <point x="1248" y="147"/>
      <point x="1290" y="74"/>
      <point x="1329" y="74" type="qcurve"/>
      <point x="1369" y="74"/>
      <point x="1408" y="149"/>
      <point x="1408" y="203" type="qcurve"/>
      <point x="1408" y="259"/>
      <point x="1368" y="333"/>
      <point x="1328" y="333" type="qcurve"/>
      <point x="1289" y="333"/>
      <point x="1248" y="257"/>
    </contour>
    <contour>
      <point x="361" y="0" type="line"/>
      <point x="260" y="0" type="line"/>
      <point x="496" y="337" type="line"/>
      <point x="742" y="700" type="line"/>
      <point x="850" y="700" type="line"/>
      <point x="561" y="296" type="line"/>
    </contour>
  </outline>
</glyph>
<glyph name="lira" format="2">
  <advance width="940"/>
  <unicode hex="20A4"/>
  <outline>
    <contour>
      <point x="385" y="224" type="qcurve"/>
      <point x="385" y="166"/>
      <point x="330" y="81"/>
      <point x="304" y="53" type="qcurve"/>
      <point x="212" y="74" type="line"/>
      <point x="231" y="84"/>
      <point x="265" y="152"/>
      <point x="265" y="201" type="qcurve"/>
      <point x="265" y="241"/>
      <point x="245" y="317"/>
      <point x="233" y="353" type="qcurve" smooth="yes"/>
      <point x="222" y="387"/>
      <point x="204" y="454"/>
      <point x="204" y="487" type="qcurve"/>
      <point x="204" y="585"/>
      <point x="362" y="710"/>
      <point x="500" y="710" type="qcurve"/>
      <point x="602" y="710"/>
      <point x="731" y="648"/>
      <point x="759" y="605" type="qcurve"/>
      <point x="685" y="534" type="line"/>
      <point x="650" y="567"/>
      <point x="559" y="602"/>
      <point x="500" y="602" type="qcurve"/>
      <point x="407" y="602"/>
      <point x="324" y="538"/>
      <point x="324" y="486" type="qcurve"/>
      <point x="324" y="456"/>
      <point x="343" y="388"/>
      <point x="355" y="353" type="qcurve" smooth="yes"/>
      <point x="366" y="319"/>
      <point x="385" y="252"/>
    </contour>
    <contour>
      <point x="655" y="-21" type="qcurve"/>
      <point x="620" y="-21"/>
      <point x="528" y="-1"/>
      <point x="481" y="11" type="qcurve" smooth="yes"/>
      <point x="430" y="24"/>
      <point x="336" y="46"/>
      <point x="304" y="46" type="qcurve"/>
      <point x="263" y="46"/>
      <point x="184" y="10"/>
      <point x="160" y="-6" type="qcurve"/>
      <point x="120" y="81" type="line"/>
      <point x="157" y="114"/>
      <point x="256" y="150"/>
      <point x="317" y="150" type="qcurve"/>
      <point x="365" y="150"/>
      <point x="462" y="126"/>
      <point x="508" y="112" type="qcurve" smooth="yes"/>
      <point x="547" y="101"/>
      <point x="621" y="83"/>
      <point x="655" y="83" type="qcurve"/>
      <point x="691" y="83"/>
      <point x="749" y="119"/>
      <point x="768" y="138" type="qcurve"/>
      <point x="820" y="57" type="line"/>
      <point x="789" y="20"/>
      <point x="702" y="-21"/>
    </contour>
    <contour>
      <point x="683" y="210" type="line"/>
      <point x="136" y="210" type="line"/>
      <point x="136" y="312" type="line"/>
      <point x="683" y="312" type="line"/>
    </contour>
    <contour>
      <point x="682" y="350" type="line"/>
      <point x="134" y="350" type="line"/>
      <point x="134" y="452" type="line"/>
      <point x="682" y="452" type="line"/>
    </contour>
  </outline>
</glyph>
<glyph name="naira" format="2">
  <advance width="1215"/>
  <unicode hex="20A6"/>
  <outline>
    <contour>
      <point x="871" y="470" type="qcurve"/>
      <point x="871" y="700" type="line"/>
      <point x="979" y="700" type="line"/>
      <point x="979" y="0" type="line"/>
      <point x="870" y="0" type="line"/>
      <point x="309" y="552" type="line"/>
      <point x="310" y="566" type="line"/>
      <point x="316" y="497"/>
      <point x="330" y="360"/>
      <point x="330" y="291" type="qcurve"/>
      <point x="330" y="0" type="line"/>
      <point x="222" y="0" type="line"/>
      <point x="222" y="700" type="line"/>
      <point x="329" y="700" type="line"/>
      <point x="897" y="127" type="line"/>
      <point x="891" y="118" type="line"/>
      <point x="879" y="193"/>
      <point x="871" y="388"/>
    </contour>
    <contour>
      <point x="232" y="297" type="line"/>
      <point x="110" y="297" type="line"/>
      <point x="110" y="407" type="line"/>
      <point x="234" y="407" type="line"/>
      <point x="268" y="400" type="line"/>
      <point x="408" y="400" type="line"/>
      <point x="408" y="304" type="line"/>
      <point x="262" y="304" type="line"/>
    </contour>
    <contour>
      <point x="778" y="400" type="line"/>
      <point x="900" y="400" type="line"/>
      <point x="942" y="407" type="line"/>
      <point x="1075" y="407" type="line"/>
      <point x="1075" y="297" type="line"/>
      <point x="937" y="297" type="line"/>
      <point x="896" y="304" type="line"/>
      <point x="778" y="304" type="line"/>
    </contour>
    <contour>
      <point x="408" y="400" type="line"/>
      <point x="778" y="400" type="line"/>
      <point x="778" y="304" type="line"/>
      <point x="408" y="304" type="line"/>
    </contour>
  </outline>
</glyph>
<glyph name="peso" format="2">
  <advance width="1095"/>
  <unicode hex="20B1"/>
  <outline>
    <contour>
      <point x="233" y="373" type="line"/>
      <point x="120" y="373" type="line"/>
      <point x="120" y="462" type="line"/>
      <point x="236" y="462" type="line"/>
      <point x="259" y="452" type="line"/>
      <point x="793" y="452" type="line"/>
      <point x="828" y="462" type="line"/>
      <point x="965" y="462" type="line"/>
      <point x="965" y="373" type="line"/>
      <point x="823" y="373" type="line"/>
      <point x="791" y="397" type="line"/>
      <point x="257" y="397" type="line"/>
    </contour>
    <contour>
      <point x="234" y="503" type="line"/>
      <point x="120" y="503" type="line"/>
      <point x="120" y="590" type="line"/>
      <point x="239" y="590" type="line"/>
      <point x="261" y="566" type="line"/>
      <point x="787" y="566" type="line"/>
      <point x="824" y="590" type="line"/>
      <point x="965" y="590" type="line"/>
      <point x="965" y="503" type="line"/>
      <point x="829" y="503" type="line"/>
      <point x="793" y="511" type="line"/>
      <point x="260" y="511" type="line"/>
    </contour>
    <contour>
      <point x="222" y="700" type="line"/>
      <point x="631" y="700" type="line" smooth="yes"/>
      <point x="723" y="700"/>
      <point x="858" y="575"/>
      <point x="858" y="485" type="qcurve" smooth="yes"/>
      <point x="858" y="390"/>
      <point x="711" y="258"/>
      <point x="611" y="258" type="qcurve" smooth="yes"/>
      <point x="322" y="258" type="line"/>
      <point x="330" y="282" type="line"/>
      <point x="330" y="0" type="line"/>
      <point x="222" y="0" type="line"/>
    </contour>
    <contour>
      <point x="321" y="362" type="line"/>
      <point x="601" y="362" type="line" smooth="yes"/>
      <point x="658" y="362"/>
      <point x="743" y="435"/>
      <point x="743" y="485" type="qcurve" smooth="yes"/>
      <point x="743" y="531"/>
      <point x="658" y="596"/>
      <point x="601" y="596" type="qcurve" smooth="yes"/>
      <point x="321" y="596" type="line"/>
      <point x="330" y="621" type="line"/>
      <point x="330" y="348" type="line"/>
    </contour>
  </outline>
</glyph>
<glyph name="cedi" format="2">
  <advance width="981"/>
  <unicode hex="20B5"/>
  <anchor x="491" y="0" name="bottom"/>
  <anchor x="531" y="700" name="top"/>
  <outline>
    <contour>
      <point x="798" y="194" type="qcurve"/>
      <point x="850" y="104" type="line"/>
      <point x="807" y="69"/>
      <point x="636" y="-10"/>
      <point x="532" y="-10" type="qcurve" smooth="yes"/>
      <point x="363" y="-10"/>
      <point x="128" y="187"/>
      <point x="128" y="350" type="qcurve" smooth="yes"/>
      <point x="128" y="504"/>
      <point x="370" y="706"/>
      <point x="532" y="706" type="qcurve" smooth="yes"/>
      <point x="633" y="706"/>
      <point x="809" y="632"/>
      <point x="855" y="589" type="qcurve"/>
      <point x="791" y="498" type="line"/>
      <point x="737" y="542"/>
      <point x="605" y="600"/>
      <point x="522" y="600" type="qcurve" smooth="yes"/>
      <point x="416" y="600"/>
      <point x="238" y="465"/>
      <point x="238" y="350" type="qcurve" smooth="yes"/>
      <point x="238" y="225"/>
      <point x="424" y="95"/>
      <point x="540" y="95" type="qcurve" smooth="yes"/>
      <point x="629" y="95"/>
      <point x="753" y="161"/>
    </contour>
    <contour>
      <point x="468" y="350" type="line"/>
      <point x="468" y="637" type="line"/>
      <point x="461" y="673" type="line"/>
      <point x="461" y="776" type="line"/>
      <point x="588" y="776" type="line"/>
      <point x="588" y="680" type="line"/>
      <point x="581" y="642" type="line"/>
      <point x="581" y="350" type="line"/>
    </contour>
    <contour>
      <point x="588" y="21" type="line"/>
      <point x="588" y="-81" type="line"/>
      <point x="461" y="-81" type="line"/>
      <point x="461" y="18" type="line"/>
      <point x="468" y="73" type="line"/>
      <point x="468" y="350" type="line"/>
      <point x="581" y="350" type="line"/>
      <point x="581" y="66" type="line"/>
    </contour>
  </outline>
</glyph>
<glyph name="literSign" format="2">
  <advance width="779"/>
  <unicode hex="2113"/>
  <note>
uni2113
</note>
  <outline>
    <contour>
      <point x="434" y="62" type="qcurve" smooth="yes"/>
      <point x="455" y="62"/>
      <point x="508" y="93"/>
      <point x="530" y="107" type="qcurve"/>
      <point x="562" y="47" type="line"/>
      <point x="531" y="19"/>
      <point x="452" y="-17"/>
      <point x="409" y="-17" type="qcurve" smooth="yes"/>
      <point x="331" y="-17"/>
      <point x="237" y="137"/>
      <point x="237" y="247" type="qcurve" smooth="yes"/>
      <point x="237" y="311"/>
      <point x="265" y="475"/>
      <point x="295" y="549" type="qcurve" smooth="yes"/>
      <point x="327" y="630"/>
      <point x="433" y="746"/>
      <point x="508" y="748" type="qcurve"/>
      <point x="568" y="747"/>
      <point x="639" y="669"/>
      <point x="639" y="608" type="qcurve" smooth="yes"/>
      <point x="639" y="547"/>
      <point x="564" y="371"/>
      <point x="480" y="281" type="qcurve" smooth="yes"/>
      <point x="426" y="223"/>
      <point x="275" y="113"/>
      <point x="177" y="67" type="qcurve"/>
      <point x="145" y="124" type="line"/>
      <point x="229" y="165"/>
      <point x="363" y="266"/>
      <point x="412" y="319" type="qcurve" smooth="yes"/>
      <point x="485" y="398"/>
      <point x="556" y="555"/>
      <point x="556" y="612" type="qcurve" smooth="yes"/>
      <point x="556" y="640"/>
      <point x="528" y="673"/>
      <point x="507" y="674" type="qcurve"/>
      <point x="462" y="671"/>
      <point x="390" y="558"/>
      <point x="366" y="485" type="qcurve" smooth="yes"/>
      <point x="344" y="418"/>
      <point x="320" y="282"/>
      <point x="320" y="242" type="qcurve" smooth="yes"/>
      <point x="320" y="167"/>
      <point x="381" y="62"/>
    </contour>
  </outline>
</glyph>
<glyph name="partialdiff" format="2">
  <advance width="910"/>
  <unicode hex="2202"/>
  <note>
partialdiff
</note>
  <outline>
    <contour>
      <point x="780" y="297" type="qcurve" smooth="yes"/>
      <point x="780" y="181"/>
      <point x="610" y="-7"/>
      <point x="444" y="-7" type="qcurve"/>
      <point x="313" y="-7"/>
      <point x="130" y="152"/>
      <point x="130" y="265" type="qcurve"/>
      <point x="130" y="378"/>
      <point x="319" y="536"/>
      <point x="432" y="536" type="qcurve"/>
      <point x="539" y="536"/>
      <point x="694" y="439"/>
      <point x="725" y="362" type="qcurve"/>
      <point x="657" y="345" type="line"/>
      <point x="657" y="449"/>
      <point x="412" y="633"/>
      <point x="305" y="656" type="qcurve"/>
      <point x="393" y="735" type="line"/>
      <point x="468" y="711"/>
      <point x="609" y="618"/>
      <point x="663" y="558" type="qcurve" smooth="yes"/>
      <point x="716" y="500"/>
      <point x="780" y="364"/>
    </contour>
    <contour>
      <point x="246" y="265" type="qcurve"/>
      <point x="246.0" y="194"/>
      <point x="363.4179104477612" y="97.0"/>
      <point x="447" y="97" type="qcurve"/>
      <point x="540.2835820895523" y="97.0"/>
      <point x="669.0" y="194.1044776119403"/>
      <point x="669" y="265" type="qcurve"/>
      <point x="669.0" y="333.65671641791045"/>
      <point x="541.0298507462686" y="431.0"/>
      <point x="447" y="431" type="qcurve"/>
      <point x="363.4179104477612" y="431.0"/>
      <point x="246.0" y="335"/>
    </contour>
  </outline>
</glyph>
<glyph name="increment" format="2">
  <advance width="1000"/>
  <unicode hex="2206"/>
  <note>
increment
</note>
  <outline>
    <contour>
      <point x="498" y="722" type="line"/>
      <point x="910" y="0" type="line"/>
      <point x="910" y="0" type="line"/>
      <point x="90" y="0" type="line"/>
      <point x="89" y="0" type="line"/>
      <point x="498" y="721" type="line"/>
    </contour>
    <contour>
      <point x="506" y="530" type="line"/>
      <point x="245" y="64" type="line"/>
      <point x="195" y="103" type="line"/>
      <point x="811" y="103" type="line"/>
      <point x="752" y="61" type="line"/>
      <point x="490" y="530" type="line"/>
    </contour>
  </outline>
</glyph>
<glyph name="infinity" format="2">
  <advance width="1133"/>
  <unicode hex="221E"/>
  <outline>
    <contour>
      <point x="293" y="47" type="qcurve" smooth="yes"/>
      <point x="217.62686567164178" y="47.0"/>
      <point x="100.0" y="142.74626865671644"/>
      <point x="100" y="242" type="qcurve" smooth="yes"/>
      <point x="100.0" y="341.25373134328356"/>
      <point x="220.37313432835822" y="437.0"/>
      <point x="295" y="437" type="qcurve" smooth="yes"/>
      <point x="361.4179104477612" y="437.0"/>
      <point x="449.7313432835821" y="389.56716417910445"/>
      <point x="496" y="353" type="qcurve" smooth="yes"/>
      <point x="716" y="177" type="line" smooth="yes"/>
      <point x="737.6417910447761" y="159.83582089552237"/>
      <point x="805.3731343283582" y="129.0"/>
      <point x="830" y="129" type="qcurve" smooth="yes"/>
      <point x="877.0149253731344" y="129.0"/>
      <point x="950.0" y="183.7910447761194"/>
      <point x="950" y="242" type="qcurve" smooth="yes"/>
      <point x="950.0" y="300.2089552238806"/>
      <point x="874.0298507462686" y="355.0"/>
      <point x="830" y="355" type="qcurve" smooth="yes"/>
      <point x="801.6417910447761" y="355.0"/>
      <point x="727.1194029850747" y="326.8955223880597"/>
      <point x="701" y="306" type="qcurve" smooth="yes"/>
      <point x="478" y="125" type="line" smooth="yes"/>
      <point x="435.46268656716416" y="90.67164179104478"/>
      <point x="354.94029850746267" y="47.0"/>
    </contour>
    <contour>
      <point x="183" y="242" type="qcurve" smooth="yes"/>
      <point x="183.0" y="184"/>
      <point x="255.73134328358208" y="129.0"/>
      <point x="302" y="129" type="qcurve" smooth="yes"/>
      <point x="336.32835820895525" y="129.0"/>
      <point x="394.91044776119406" y="154.62686567164178"/>
      <point x="427" y="180" type="qcurve" smooth="yes"/>
      <point x="647" y="356" type="line" smooth="yes"/>
      <point x="691.0298507462686" y="391.82089552238807"/>
      <point x="773.5671641791045" y="437.0"/>
      <point x="837" y="437" type="qcurve" smooth="yes"/>
      <point x="911.6268656716418" y="437.0"/>
      <point x="1033.0" y="341.25373134328356"/>
      <point x="1033" y="242" type="qcurve" smooth="yes"/>
      <point x="1033.0" y="142.74626865671644"/>
      <point x="915.1194029850747" y="47.0"/>
      <point x="839" y="47" type="qcurve" smooth="yes"/>
      <point x="777.0597014925373" y="47.0"/>
      <point x="693.0597014925373" y="89.40298507462687"/>
      <point x="655" y="120" type="qcurve" smooth="yes"/>
      <point x="431" y="301" type="line" smooth="yes"/>
      <point x="405.6268656716418" y="321.8955223880597"/>
      <point x="337.56716417910445" y="355.0"/>
      <point x="301" y="355" type="qcurve" smooth="yes"/>
      <point x="257.7164179104478" y="355.0"/>
      <point x="183.0" y="300"/>
    </contour>
  </outline>
</glyph>
<glyph name="alef-ar.fina" format="2">
  <advance width="593"/>
  <unicode hex="FE8E"/>
  <anchor x="264" y="0" name="bottom"/>
  <anchor x="264" y="700" name="top"/>
  <outline>
    <contour>
      <point x="212" y="740" type="line"/>
      <point x="316" y="740" type="line"/>
      <point x="316" y="250" type="line" smooth="yes"/>
      <point x="316.0" y="173.8805970149254"/>
      <point x="390.86567164179104" y="102.0"/>
      <point x="514" y="102" type="qcurve" smooth="yes"/>
      <point x="593" y="102" type="line"/>
      <point x="593" y="0" type="line"/>
      <point x="494" y="0" type="line" smooth="yes"/>
      <point x="323.85074626865674" y="0.0"/>
      <point x="212.0" y="127.73134328358209"/>
      <point x="212" y="224" type="qcurve" smooth="yes"/>
    </contour>
  </outline>
</glyph>
<glyph name="hah-ar.fina" format="2">
  <advance width="1181"/>
  <unicode hex="FEA2"/>
  <outline>
    <contour>
      <point x="742" y="133" type="qcurve"/>
      <point x="812" y="167" type="line"/>
      <point x="827.6716417910447" y="131.92537313432837"/>
      <point x="916.6567164179105" y="102.0"/>
      <point x="1048" y="102" type="qcurve" smooth="yes"/>
      <point x="1181" y="102" type="line"/>
      <point x="1181" y="0" type="line"/>
      <point x="1045" y="0" type="line" smooth="yes"/>
      <point x="885.2985074626865" y="0.0"/>
      <point x="762.1492537313433" y="64.34328358208955"/>
    </contour>
    <component base="hah-ar"/>
  </outline>
</glyph>
<glyph name="hah-ar.init" format="2">
  <advance width="1105"/>
  <unicode hex="FEA3"/>
  <anchor x="442" y="0" name="bottom"/>
  <anchor x="372" y="438" name="top"/>
  <outline>
    <contour>
      <point x="159" y="198" type="qcurve"/>
      <point x="225" y="229" type="line"/>
      <point x="59" y="313" type="line"/>
      <point x="93" y="243" type="line"/>
      <point x="131.8059701492537" y="350.46268656716416"/>
      <point x="274.23880597014926" y="438.0"/>
      <point x="372" y="438" type="qcurve" smooth="yes"/>
      <point x="510.05970149253733" y="438.0"/>
      <point x="807.0298507462687" y="267.0"/>
      <point x="963" y="267" type="qcurve"/>
      <point x="963" y="177" type="line"/>
      <point x="927.179104477612" y="177.0"/>
      <point x="839.4776119402985" y="137.1044776119403"/>
      <point x="785" y="108" type="qcurve" smooth="yes"/>
      <point x="695.4477611940299" y="60.985074626865675"/>
      <point x="350.2238805970149" y="0.0"/>
      <point x="95" y="0" type="qcurve" smooth="yes"/>
      <point x="0" y="0" type="line"/>
      <point x="0" y="102" type="line"/>
      <point x="101" y="102" type="line" smooth="yes"/>
      <point x="330.85074626865674" y="102.0"/>
      <point x="646.2089552238806" y="141.74626865671644"/>
      <point x="738" y="191" type="qcurve" smooth="yes"/>
      <point x="792.4776119402985" y="220.1044776119403"/>
      <point x="906.2835820895523" y="267.0"/>
      <point x="963" y="267" type="qcurve"/>
      <point x="963" y="177" type="line"/>
      <point x="801.0597014925373" y="177.0"/>
      <point x="477.4029850746268" y="334.0"/>
      <point x="358" y="334" type="qcurve" smooth="yes"/>
      <point x="277.4029850746269" y="334.0"/>
      <point x="190.34328358208955" y="283.82089552238807"/>
    </contour>
  </outline>
</glyph>
<glyph name="dal-ar.fina" format="2">
  <advance width="1078"/>
  <unicode hex="FEAA"/>
  <outline>
    <contour>
      <point x="135" y="0" type="line"/>
      <point x="116" y="102" type="line"/>
      <point x="608" y="102" type="line" smooth="yes"/>
      <point x="655.7611940298507" y="102.0"/>
      <point x="700.8059701492538" y="120.83582089552239"/>
      <point x="712" y="138" type="qcurve"/>
      <point x="748" y="56" type="line"/>
      <point x="733.820895522388" y="24.656716417910452"/>
      <point x="655.7611940298507" y="0.0"/>
      <point x="608" y="0" type="qcurve"/>
    </contour>
    <contour>
      <point x="394" y="388" type="line"/>
      <point x="472" y="487" type="line"/>
      <point x="747" y="192" type="line" smooth="yes"/>
      <point x="794.7611940298507" y="141.2537313432836"/>
      <point x="891.6119402985074" y="102.0"/>
      <point x="964" y="102" type="qcurve" smooth="yes"/>
      <point x="1078" y="102" type="line"/>
      <point x="1078" y="0" type="line"/>
      <point x="932" y="0" type="line" smooth="yes"/>
      <point x="841.7014925373135" y="0.0"/>
      <point x="726.9104477611941" y="64.58208955223881"/>
      <point x="659" y="131" type="qcurve" smooth="yes"/>
    </contour>
  </outline>
</glyph>
<glyph name="sad-ar.init" format="2">
  <advance width="1695"/>
  <unicode hex="FEBB"/>
  <anchor x="1478" y="0" name="#entry"/>
  <anchor x="1103" y="0" name="bottom"/>
  <anchor x="1204" y="438" name="top"/>
  <outline>
    <contour>
      <point x="720" y="0" type="line"/>
      <point x="720" y="102" type="line"/>
      <point x="1395" y="102" type="line"/>
      <point x="1396.4925373134329" y="210.2089552238806"/>
      <point x="1293.4925373134329" y="334.0"/>
      <point x="1192" y="334" type="qcurve" smooth="yes"/>
      <point x="1073.3432835820895" y="334.0"/>
      <point x="827.3731343283582" y="153.79104477611938"/>
      <point x="702" y="12" type="qcurve"/>
      <point x="637" y="97" type="line"/>
      <point x="781.776119402985" y="252.97014925373134"/>
      <point x="1059.2238805970148" y="438.0"/>
      <point x="1204" y="438" type="qcurve" smooth="yes"/>
      <point x="1371.910447761194" y="438.0"/>
      <point x="1518.2985074626865" y="182.08955223880596"/>
      <point x="1478" y="0" type="qcurve"/>
    </contour>
    <component base="behDotless-ar.medi"/>
  </outline>
</glyph>
<glyph name="tah-ar.init" format="2">
  <advance width="1325"/>
  <unicode hex="FEC3"/>
  <anchor x="1108" y="0" name="#entry"/>
  <anchor x="671" y="0" name="bottom"/>
  <anchor x="784" y="438" name="top"/>
  <outline>
    <contour>
      <point x="0" y="0" type="line"/>
      <point x="0" y="102" type="line"/>
      <point x="1025" y="102" type="line"/>
      <point x="1026.4925373134329" y="210.2089552238806"/>
      <point x="923.4925373134329" y="334.0"/>
      <point x="822" y="334" type="qcurve" smooth="yes"/>
      <point x="703.3432835820896" y="334.0"/>
      <point x="457.3731343283582" y="157.52238805970148"/>
      <point x="332" y="12" type="qcurve"/>
      <point x="326" y="148" type="line"/>
      <point x="426.74626865671644" y="265.910447761194"/>
      <point x="689.223880597015" y="438.0"/>
      <point x="834" y="438" type="qcurve" smooth="yes"/>
      <point x="1001.9104477611941" y="438.0"/>
      <point x="1148.2985074626865" y="182.08955223880596"/>
      <point x="1108" y="0" type="qcurve"/>
    </contour>
    <contour>
      <point x="310" y="0" type="line"/>
      <point x="310" y="738" type="line"/>
      <point x="414" y="740" type="line"/>
      <point x="414" y="0" type="line"/>
    </contour>
  </outline>
</glyph>
<glyph name="ain-ar.fina" format="2">
  <advance width="914"/>
  <unicode hex="FECA"/>
  <outline>
    <contour>
      <point x="420" y="157" type="line"/>
      <point x="520.7462686567164" y="184.61194029850745"/>
      <point x="596.0" y="253.88059701492537"/>
      <point x="596" y="280" type="qcurve" smooth="yes"/>
      <point x="596.0" y="306.86567164179104"/>
      <point x="507.44776119402985" y="336.0"/>
      <point x="447" y="336" type="qcurve" smooth="yes"/>
      <point x="383.56716417910445" y="336.0"/>
      <point x="271.4776119402985" y="317.94029850746267"/>
      <point x="217" y="306" type="qcurve"/>
      <point x="202" y="349" type="line"/>
      <point x="402" y="203" type="line" smooth="yes"/>
      <point x="472.14925373134326" y="151.50746268656718"/>
      <point x="592.1044776119403" y="102.0"/>
      <point x="663" y="102" type="qcurve" smooth="yes"/>
      <point x="914" y="102" type="line"/>
      <point x="914" y="0" type="line"/>
      <point x="663" y="0" type="line" smooth="yes"/>
      <point x="534.6417910447761" y="0.0"/>
      <point x="400.17910447761193" y="89.71641791044777"/>
      <point x="336" y="133" type="qcurve" smooth="yes"/>
      <point x="163" y="251" type="line"/>
      <point x="163" y="386" type="line"/>
      <point x="234.6417910447761" y="409.13432835820896"/>
      <point x="372.3731343283582" y="438.0"/>
      <point x="447" y="438" type="qcurve" smooth="yes"/>
      <point x="548.4925373134329" y="438.0"/>
      <point x="700.5074626865671" y="372.6268656716418"/>
      <point x="702" y="298" type="qcurve" smooth="yes"/>
      <point x="703.4925373134329" y="239.7910447761194"/>
      <point x="590.5671641791045" y="137.82089552238807"/>
      <point x="504" y="102" type="qcurve"/>
    </contour>
    <contour>
      <point x="470" y="78" type="qcurve"/>
      <point x="402" y="147" type="line"/>
      <point x="225.13432835820896" y="85.80597014925374"/>
      <point x="58.0" y="-86.044776119403"/>
      <point x="58" y="-195" type="qcurve" smooth="yes"/>
      <point x="58.0" y="-318.88059701492534"/>
      <point x="309.6865671641791" y="-456.0"/>
      <point x="497" y="-456" type="qcurve" smooth="yes"/>
      <point x="632.820895522388" y="-456.0"/>
      <point x="844.4328358208955" y="-431.5970149253731"/>
      <point x="931" y="-401" type="qcurve"/>
      <point x="903" y="-452" type="line"/>
      <point x="857" y="-280" type="line"/>
      <point x="904" y="-314" type="line"/>
      <point x="850.2686567164179" y="-332.65671641791045"/>
      <point x="665.0746268656717" y="-354.0"/>
      <point x="530" y="-354" type="qcurve" smooth="yes"/>
      <point x="351.64179104477614" y="-354.0"/>
      <point x="162.0" y="-258.35820895522386"/>
      <point x="162" y="-180" type="qcurve" smooth="yes"/>
      <point x="162.0" y="-94.92537313432837"/>
      <point x="314.7761194029851" y="28.746268656716424"/>
    </contour>
  </outline>
</glyph>
<glyph name="meem-ar.init" format="2">
  <advance width="1054"/>
  <unicode hex="FEE3"/>
  <anchor x="596" y="-23" name="bottom"/>
  <anchor x="580" y="405" name="top"/>
  <outline>
    <contour>
      <point x="103" y="0" type="qcurve"/>
      <point x="0" y="0" type="line"/>
      <point x="0" y="102" type="line"/>
      <point x="103" y="102" type="line"/>
      <point x="211.955223880597" y="102.0"/>
      <point x="281.6268656716418" y="147.47761194029852"/>
      <point x="307" y="193" type="qcurve" smooth="yes"/>
      <point x="337.5970149253731" y="248.22388059701493"/>
      <point x="479.25373134328356" y="405.0"/>
      <point x="580" y="405" type="qcurve" smooth="yes"/>
      <point x="711.3432835820895" y="405.0"/>
      <point x="876.820895522388" y="176.44776119402982"/>
      <point x="841" y="16" type="qcurve"/>
      <point x="729.0597014925373" y="-34.74626865671641"/>
      <point x="374.19402985074623" y="12.791044776119406"/>
      <point x="313" y="121" type="qcurve"/>
      <point x="376" y="173" type="line"/>
      <point x="410.32835820895525" y="121.50746268656717"/>
      <point x="675.6716417910447" y="70.82089552238806"/>
      <point x="760" y="85" type="qcurve"/>
      <point x="768.2089552238806" y="172.3134328358209"/>
      <point x="644.3880597014926" y="301.0"/>
      <point x="572" y="301" type="qcurve" smooth="yes"/>
      <point x="533.9402985074627" y="301.0"/>
      <point x="445.0" y="243.04477611940297"/>
      <point x="395" y="152" type="qcurve" smooth="yes"/>
      <point x="372.6119402985075" y="111.70149253731344"/>
      <point x="264.19402985074623" y="0.0"/>
    </contour>
  </outline>
</glyph>
<glyph name="waw-ar.fina" format="2">
  <advance width="878"/>
  <unicode hex="FEEE"/>
  <anchor x="359" y="-230" name="bottom"/>
  <anchor x="420" y="388" name="top"/>
  <outline>
    <contour>
      <point x="676" y="90" type="qcurve" smooth="yes"/>
      <point x="676.0" y="-15.223880597014912"/>
      <point x="538.8507462686567" y="-230.0"/>
      <point x="359" y="-230" type="qcurve" smooth="yes"/>
      <point x="275.4179104477612" y="-230.0"/>
      <point x="140.01492537313433" y="-193.5820895522388"/>
      <point x="93" y="-160" type="qcurve"/>
      <point x="93" y="-221" type="line"/>
      <point x="175" y="-51" type="line"/>
      <point x="127" y="-79" type="line"/>
      <point x="160.5820895522388" y="-95.41791044776119"/>
      <point x="271.35820895522386" y="-128.0"/>
      <point x="343" y="-128" type="qcurve" smooth="yes"/>
      <point x="469.86567164179104" y="-128.0"/>
      <point x="584.0" y="-10.044776119402982"/>
      <point x="584" y="81" type="qcurve" smooth="yes"/>
      <point x="584.0" y="153.38805970149252"/>
      <point x="497.5820895522388" y="286.0"/>
      <point x="414" y="286" type="qcurve" smooth="yes"/>
      <point x="352.05970149253733" y="286.0"/>
      <point x="271.0" y="215.8059701492537"/>
      <point x="271" y="177" type="qcurve" smooth="yes"/>
      <point x="271.0" y="144.16417910447763"/>
      <point x="332.0" y="102.0"/>
      <point x="432" y="102" type="qcurve" smooth="yes"/>
      <point x="878" y="102" type="line"/>
      <point x="878" y="0" type="line"/>
      <point x="419" y="0" type="line" smooth="yes"/>
      <point x="280.94029850746267" y="0.0"/>
      <point x="176.0" y="93.56716417910448"/>
      <point x="176" y="157" type="qcurve" smooth="yes"/>
      <point x="176.0" y="256.25373134328356"/>
      <point x="320.74626865671644" y="388.0"/>
      <point x="420" y="388" type="qcurve" smooth="yes"/>
      <point x="536.4179104477612" y="388.0"/>
      <point x="676.0" y="225.07462686567163"/>
    </contour>
  </outline>
</glyph>
<glyph name="alefMaksura-ar.fina" format="2">
  <advance width="1273"/>
  <unicode hex="FEF0"/>
  <anchor x="514" y="-230" name="bottom"/>
  <anchor x="234" y="223" name="top"/>
  <outline>
    <contour>
      <point x="801" y="193" type="line"/>
      <point x="937.5671641791045" y="117.6268656716418"/>
      <point x="1013.0" y="48.805970149253724"/>
      <point x="1013" y="10" type="qcurve" smooth="yes"/>
      <point x="1013.0" y="-70.59701492537313"/>
      <point x="780.4179104477612" y="-230.0"/>
      <point x="514" y="-230" type="qcurve" smooth="yes"/>
      <point x="328.179104477612" y="-230.0"/>
      <point x="87.0" y="-103.11940298507461"/>
      <point x="87" y="23" type="qcurve" smooth="yes"/>
      <point x="87.0" y="68.52238805970148"/>
      <point x="110.92537313432837" y="179.85074626865674"/>
      <point x="146" y="250" type="qcurve"/>
      <point x="90" y="228" type="line"/>
      <point x="267" y="169" type="line"/>
      <point x="234" y="223" type="line"/>
      <point x="207.88059701492537" y="163.2985074626866"/>
      <point x="188.0" y="72.32835820895522"/>
      <point x="188" y="38" type="qcurve" smooth="yes"/>
      <point x="188.0" y="-44.089552238805965"/>
      <point x="372.01492537313436" y="-128.0"/>
      <point x="525" y="-128" type="qcurve" smooth="yes"/>
      <point x="725.0" y="-128.0"/>
      <point x="921.0" y="-36.089552238805965"/>
      <point x="921" y="-4" type="qcurve" smooth="yes"/>
      <point x="921.0" y="17.641791044776117"/>
      <point x="863.4776119402985" y="60.2089552238806"/>
      <point x="759" y="102" type="qcurve"/>
    </contour>
    <contour>
      <point x="867" y="78" type="line"/>
      <point x="921.4776119402985" y="39.94029850746269"/>
      <point x="1067.3880597014925" y="0.0"/>
      <point x="1145" y="0" type="qcurve"/>
      <point x="1273" y="0" type="line"/>
      <point x="1273" y="102" type="line"/>
      <point x="1145" y="102" type="line"/>
      <point x="1057.686567164179" y="102.0"/>
      <point x="920.4029850746268" y="134.044776119403"/>
      <point x="801" y="193" type="qcurve"/>
    </contour>
  </outline>
</glyph>
<glyph name="lam_alef-ar" format="2">
  <advance width="840"/>
  <unicode hex="FEFB"/>
  <outline>
    <contour>
      <point x="246" y="102" type="line"/>
      <point x="314.65671641791045" y="152.0"/>
      <point x="455.7164179104478" y="285.13432835820896"/>
      <point x="499" y="362" type="qcurve" smooth="yes"/>
      <point x="534.0746268656717" y="423.94029850746267"/>
      <point x="536.223880597015" y="618.5074626865671"/>
      <point x="531" y="720" type="qcurve"/>
      <point x="635" y="740" type="line"/>
      <point x="645.4477611940298" y="609.4029850746269"/>
      <point x="611.2835820895523" y="387.3134328358209"/>
      <point x="568" y="300" type="qcurve"/>
      <point x="512.0298507462687" y="229.1044776119403"/>
      <point x="416.53731343283584" y="138.56716417910448"/>
      <point x="374" y="102" type="qcurve"/>
      <point x="636" y="102" type="line"/>
      <point x="598.6865671641791" y="212.44776119402985"/>
      <point x="399.1194029850746" y="396.2985074626866"/>
      <point x="173" y="506" type="qcurve"/>
      <point x="192" y="618" type="line"/>
      <point x="510.65671641791045" y="453.0746268656717"/>
      <point x="745.9850746268656" y="131.34328358208955"/>
      <point x="693" y="0" type="qcurve"/>
      <point x="266" y="0" type="line"/>
    </contour>
  </outline>
</glyph>
<glyph name="lam_alef-ar.fina" format="2">
  <advance width="1069"/>
  <unicode hex="FEFC"/>
  <anchor x="399" y="0" name="bottom"/>
  <anchor x="733" y="0" name="bottom_1"/>
  <anchor x="394" y="0" name="bottom_2"/>
  <anchor x="558" y="0" name="caret"/>
  <anchor x="232" y="572" name="top"/>
  <anchor x="713" y="700" name="top_1"/>
  <anchor x="232" y="568" name="top_2"/>
  <outline>
    <contour>
      <point x="658" y="740" type="line"/>
      <point x="762" y="740" type="line"/>
      <point x="762" y="190" type="line" smooth="yes"/>
      <point x="762.0" y="143.73134328358208"/>
      <point x="794.0298507462687" y="102.0"/>
      <point x="850" y="102" type="qcurve" smooth="yes"/>
      <point x="1069" y="102" type="line"/>
      <point x="1069" y="0" type="line"/>
      <point x="830" y="0" type="line" smooth="yes"/>
      <point x="727.0149253731344" y="0.0"/>
      <point x="658.0" y="97.58208955223881"/>
      <point x="658" y="164" type="qcurve" smooth="yes"/>
    </contour>
    <contour>
      <point x="156" y="0" type="line"/>
      <point x="136" y="102" type="line"/>
      <point x="491" y="102" type="line" smooth="yes"/>
      <point x="555.1791044776119" y="102.0"/>
      <point x="672.0597014925373" y="141.5820895522388"/>
      <point x="684" y="208" type="qcurve"/>
      <point x="758" y="221" type="line"/>
      <point x="758.0" y="99.35820895522389"/>
      <point x="630.3432835820895" y="0.0"/>
      <point x="449" y="0" type="qcurve" smooth="yes"/>
    </contour>
    <contour>
      <point x="691" y="87" type="line"/>
      <point x="637.2686567164179" y="163.86567164179104"/>
      <point x="316.2686567164179" y="385.55223880597015"/>
      <point x="120" y="496" type="qcurve"/>
      <point x="139" y="608" type="line"/>
      <point x="365.86567164179104" y="469.1940298507463"/>
      <point x="681.5074626865671" y="238.92537313432837"/>
      <point x="733" y="174" type="qcurve"/>
    </contour>
  </outline>
</glyph>
<glyph name="behDotless-ar.medi" format="2">
  <advance width="720"/>
  <outline>
    <contour>
      <point x="386" y="136" type="qcurve"/>
      <point x="331" y="68" type="line"/>
      <point x="369.05970149253733" y="42.626865671641795"/>
      <point x="530.7313432835821" y="0.0"/>
      <point x="627" y="0" type="qcurve" smooth="yes"/>
      <point x="720" y="0" type="line"/>
      <point x="720" y="102" type="line"/>
      <point x="604" y="102" type="line" smooth="yes"/>
      <point x="544.2985074626865" y="102.0"/>
      <point x="415.1044776119403" y="119.58208955223881"/>
    </contour>
    <contour>
      <point x="0" y="102" type="line"/>
      <point x="322" y="102" type="line"/>
      <point x="339.1641791044776" y="130.3582089552239"/>
      <point x="360.2686567164179" y="242.73134328358208"/>
      <point x="364" y="289" type="qcurve"/>
      <point x="485" y="331" type="line"/>
      <point x="463.35820895522386" y="227.26865671641792"/>
      <point x="408.4925373134328" y="76.11940298507461"/>
      <point x="357" y="0" type="qcurve"/>
      <point x="0" y="0" type="line"/>
    </contour>
  </outline>
</glyph>
<glyph name="dotcenter-ar" format="2">
  <advance width="258"/>
  <anchor x="129" y="607" name="_center"/>
  <outline>
    <contour>
      <point x="131" y="525" type="line"/>
      <point x="50" y="607" type="line"/>
      <point x="127" y="689" type="line"/>
      <point x="208" y="607" type="line"/>
    </contour>
  </outline>
</glyph>
<glyph name="eight.dnom" format="2">
  <advance width="353"/>
  <outline>
    <contour>
      <point x="309" y="97" type="qcurve"/>
      <point x="309.0" y="53"/>
      <point x="230.73134328358208" y="-11.0"/>
      <point x="177" y="-11" type="qcurve"/>
      <point x="122.5223880597015" y="-11.0"/>
      <point x="44.0" y="52.97014925373135"/>
      <point x="44" y="97" type="qcurve"/>
      <point x="44.0" y="132.82089552238807"/>
      <point x="94.6268656716418" y="176.80597014925374"/>
      <point x="120" y="188" type="qcurve"/>
      <point x="117" y="177" type="line"/>
      <point x="93.11940298507463" y="185.2089552238806"/>
      <point x="54.0" y="224.40298507462688"/>
      <point x="54" y="255" type="qcurve"/>
      <point x="54.0" y="298.2835820895522"/>
      <point x="125.50746268656717" y="358.0"/>
      <point x="177" y="358" type="qcurve"/>
      <point x="227.7462686567164" y="358.0"/>
      <point x="300.0" y="298.2835820895522"/>
      <point x="300" y="255" type="qcurve"/>
      <point x="300.0" y="222.91044776119404"/>
      <point x="257.14925373134326" y="185.2089552238806"/>
      <point x="237" y="177" type="qcurve"/>
      <point x="236" y="188" type="line"/>
      <point x="268.08955223880594" y="174.56716417910448"/>
      <point x="309.0" y="125"/>
    </contour>
    <contour>
      <point x="129" y="253" type="qcurve"/>
      <point x="129.0" y="236"/>
      <point x="156.8507462686567" y="213.0"/>
      <point x="177" y="213" type="qcurve"/>
      <point x="195.65671641791045" y="213.0"/>
      <point x="225.0" y="235.83582089552237"/>
      <point x="225" y="253" type="qcurve"/>
      <point x="225.0" y="270.910447761194"/>
      <point x="196.40298507462686" y="294.0"/>
      <point x="177" y="294" type="qcurve"/>
      <point x="156.1044776119403" y="294.0"/>
      <point x="129.0" y="271"/>
    </contour>
    <contour>
      <point x="121" y="104" type="qcurve"/>
      <point x="121.0" y="82"/>
      <point x="153.86567164179104" y="52.0"/>
      <point x="177" y="52" type="qcurve"/>
      <point x="200.13432835820896" y="52.0"/>
      <point x="233.0" y="82.35820895522389"/>
      <point x="233" y="104" type="qcurve"/>
      <point x="233.0" y="124.8955223880597"/>
      <point x="198.6417910447761" y="151.0"/>
      <point x="177" y="151" type="qcurve"/>
      <point x="154.61194029850748" y="151.0"/>
      <point x="121.0" y="125"/>
    </contour>
  </outline>
</glyph>
<glyph name="fehDotless-ar.init" format="2">
  <advance width="964"/>
  <anchor x="552" y="0" name="bottom"/>
  <anchor x="508" y="547" name="top"/>
  <outline>
    <contour>
      <point x="0" y="0" type="line"/>
      <point x="0" y="102" type="line"/>
      <point x="663" y="102" type="line"/>
      <point x="666.7313432835821" y="139.3134328358209"/>
      <point x="669.0" y="189.61194029850748"/>
      <point x="669" y="212" type="qcurve" smooth="yes"/>
      <point x="669.0" y="305.2835820895522"/>
      <point x="593.0597014925373" y="445.0"/>
      <point x="505" y="445" type="qcurve" smooth="yes"/>
      <point x="434.85074626865674" y="445.0"/>
      <point x="356.0" y="375.55223880597015"/>
      <point x="356" y="336" type="qcurve" smooth="yes"/>
      <point x="356.0" y="303.1641791044776"/>
      <point x="417.0" y="262.0"/>
      <point x="517" y="262" type="qcurve" smooth="yes"/>
      <point x="566.2537313432836" y="262.0"/>
      <point x="646.3880597014926" y="271.2985074626866"/>
      <point x="674" y="281" type="qcurve"/>
      <point x="725" y="205" type="line"/>
      <point x="686.9402985074627" y="182.61194029850748"/>
      <point x="583.1044776119403" y="160.0"/>
      <point x="504" y="160" type="qcurve" smooth="yes"/>
      <point x="365.94029850746267" y="160.0"/>
      <point x="261.0" y="255.56716417910448"/>
      <point x="261" y="319" type="qcurve" smooth="yes"/>
      <point x="261.0" y="422.7313432835821"/>
      <point x="410.23880597014926" y="547.0"/>
      <point x="508" y="547" type="qcurve" smooth="yes"/>
      <point x="628.8955223880597" y="547.0"/>
      <point x="761.0" y="383.910447761194"/>
      <point x="761" y="266" type="qcurve" smooth="yes"/>
      <point x="761.0" y="204.80597014925374"/>
      <point x="742.2089552238806" y="49.99999999999999"/>
      <point x="734" y="0" type="qcurve"/>
    </contour>
  </outline>
</glyph>
<glyph name="horncomb.case" format="2">
  <outline>
    <contour>
      <point x="74" y="420" type="qcurve"/>
      <point x="74" y="502" type="line"/>
      <point x="116.53731343283582" y="502.0"/>
      <point x="163.0" y="556.2985074626865"/>
      <point x="163" y="616" type="qcurve"/>
      <point x="255" y="616" type="line"/>
      <point x="255.0" y="533.9104477611941"/>
      <point x="166.53731343283582" y="420.0"/>
    </contour>
  </outline>
</glyph>
<glyph name="kaf-ar.medi.v2" format="2">
  <advance width="970"/>
  <outline>
    <contour>
      <point x="657" y="60" type="qcurve"/>
      <point x="594" y="129" type="line"/>
      <point x="572.3582089552239" y="114.07462686567165"/>
      <point x="516.4925373134329" y="102.0"/>
      <point x="465" y="102" type="qcurve" smooth="yes"/>
      <point x="0" y="102" type="line"/>
      <point x="0" y="0" type="line"/>
      <point x="433" y="0" type="line" smooth="yes"/>
      <point x="542.7014925373135" y="0.0"/>
      <point x="621.179104477612" y="26.417910447761194"/>
    </contour>
    <contour>
      <point x="188" y="388" type="line"/>
      <point x="188" y="498" type="line"/>
      <point x="745" y="746" type="line"/>
      <point x="790" y="657" type="line"/>
      <point x="246" y="413" type="line"/>
      <point x="267" y="462" type="line"/>
      <point x="626" y="175" type="line" smooth="yes"/>
      <point x="681.9701492537313" y="130.22388059701493"/>
      <point x="765.4328358208955" y="102.0"/>
      <point x="852" y="102" type="qcurve" smooth="yes"/>
      <point x="970" y="102" type="line"/>
      <point x="970" y="0" type="line"/>
      <point x="852" y="0" type="line" smooth="yes"/>
      <point x="739.3134328358209" y="0.0"/>
      <point x="624.8507462686567" y="41.56716417910448"/>
      <point x="545" y="105" type="qcurve" smooth="yes"/>
    </contour>
  </outline>
</glyph>
<glyph name="reh-ar.fina.yeh" format="2">
  <advance width="963"/>
  <outline>
    <contour>
      <point x="643" y="81" type="qcurve"/>
      <point x="483" y="178" type="line"/>
      <point x="506.88059701492534" y="147.40298507462688"/>
      <point x="549.0" y="101.58208955223881"/>
      <point x="549" y="68" type="qcurve" smooth="yes"/>
      <point x="549.0" y="-6.626865671641781"/>
      <point x="393.3731343283582" y="-128.0"/>
      <point x="268" y="-128" type="qcurve" smooth="yes"/>
      <point x="191.13432835820896" y="-128.0"/>
      <point x="63.582089552238806" y="-97.92537313432835"/>
      <point x="30" y="-83" type="qcurve"/>
      <point x="80" y="-51" type="line"/>
      <point x="16" y="-230" type="line"/>
      <point x="-4" y="-166" type="line"/>
      <point x="51.22388059701492" y="-195.1044776119403"/>
      <point x="192.2089552238806" y="-230.0"/>
      <point x="284" y="-230" type="qcurve" smooth="yes"/>
      <point x="471.3134328358209" y="-230.0"/>
      <point x="634.044776119403" y="-24.22388059701491"/>
    </contour>
    <contour>
      <point x="362" y="320" type="line"/>
      <point x="436" y="413" type="line"/>
      <point x="611" y="191" type="line" smooth="yes"/>
      <point x="645.3283582089553" y="146.97014925373134"/>
      <point x="738.6567164179105" y="102.0"/>
      <point x="820" y="102" type="qcurve" smooth="yes"/>
      <point x="963" y="102" type="line"/>
      <point x="963" y="0" type="line"/>
      <point x="802" y="0" type="line" smooth="yes"/>
      <point x="696.776119402985" y="0.0"/>
      <point x="576.7313432835821" y="67.56716417910448"/>
      <point x="523" y="131" type="qcurve" smooth="yes"/>
    </contour>
  </outline>
</glyph>
<glyph name="reh-ar.yeh" format="2">
  <advance width="830"/>
  <anchor x="297" y="-230" name="bottom"/>
  <anchor x="480" y="378" name="top"/>
  <outline>
    <contour>
      <point x="297" y="-230" type="qcurve" smooth="yes"/>
      <point x="220.8805970149254" y="-230.0"/>
      <point x="80.01492537313433" y="-198.32835820895522"/>
      <point x="33" y="-164" type="qcurve"/>
      <point x="70" y="-95" type="line"/>
      <point x="102.83582089552239" y="-108.43283582089552"/>
      <point x="204.13432835820896" y="-128.0"/>
      <point x="281" y="-128" type="qcurve" smooth="yes"/>
      <point x="413.8358208955224" y="-128.0"/>
      <point x="562.0" y="-10.044776119402982"/>
      <point x="562" y="81" type="qcurve" smooth="yes"/>
      <point x="562.0" y="120.55223880597015"/>
      <point x="509.6268656716418" y="228.2089552238806"/>
      <point x="435" y="320" type="qcurve"/>
      <point x="509" y="413" type="line"/>
      <point x="587.3582089552239" y="307.02985074626866"/>
      <point x="656.0" y="159.35820895522386"/>
      <point x="656" y="81" type="qcurve" smooth="yes"/>
      <point x="656.0" y="-24.22388059701491"/>
      <point x="482.820895522388" y="-230.0"/>
    </contour>
  </outline>
</glyph>
<glyph name="tildecomb.case" format="2">
  <outline>
    <contour>
      <point x="127" y="581" type="qcurve"/>
      <point x="50" y="581" type="line"/>
      <point x="50" y="635"/>
      <point x="120" y="694"/>
      <point x="166" y="694" type="qcurve" smooth="yes"/>
      <point x="187" y="694"/>
      <point x="227" y="680"/>
      <point x="246" y="672" type="qcurve" smooth="yes"/>
      <point x="261" y="665"/>
      <point x="290" y="654"/>
      <point x="302" y="654" type="qcurve"/>
      <point x="314" y="654"/>
      <point x="328" y="675"/>
      <point x="327" y="694" type="qcurve"/>
      <point x="403" y="694" type="line"/>
      <point x="403" y="649"/>
      <point x="349" y="580"/>
      <point x="301" y="580" type="qcurve"/>
      <point x="278" y="580"/>
      <point x="231" y="595"/>
      <point x="210" y="603" type="qcurve" smooth="yes"/>
      <point x="193" y="610"/>
      <point x="165" y="620"/>
      <point x="154" y="620" type="qcurve" smooth="yes"/>
      <point x="143" y="620"/>
      <point x="127" y="600"/>
    </contour>
  </outline>
</glyph>
<glyph name="twodotshorizontalbelow-ar" format="2">
  <advance width="470"/>
  <outline>
    <contour>
      <point x="131" y="-243" type="line"/>
      <point x="50" y="-161" type="line"/>
      <point x="127" y="-79" type="line"/>
      <point x="208" y="-161" type="line"/>
    </contour>
    <contour>
      <point x="343" y="-243" type="line"/>
      <point x="262" y="-161" type="line"/>
      <point x="339" y="-79" type="line"/>
      <point x="420" y="-161" type="line"/>
    </contour>
  </outline>
</glyph>
<glyph name="wasla-ar" format="2">
  <advance width="372"/>
  <anchor x="226" y="525" name="_top"/>
  <anchor x="215" y="750" name="top"/>
  <outline>
    <contour>
      <point x="67" y="745" type="qcurve"/>
      <point x="124" y="761" type="line"/>
      <point x="116.53731343283582" y="708.0149253731344"/>
      <point x="82.67164179104478" y="654.4029850746268"/>
      <point x="67" y="635" type="qcurve"/>
      <point x="20" y="635" type="line"/>
      <point x="20" y="691" type="line"/>
      <point x="56" y="691" type="line"/>
      <point x="59.73134328358209" y="702.1940298507462"/>
      <point x="64.76119402985074" y="723.3582089552239"/>
    </contour>
    <contour>
      <point x="161" y="658" type="qcurve"/>
      <point x="122" y="676" type="line"/>
      <point x="149.61194029850745" y="739.4328358208955"/>
      <point x="226.71641791044777" y="805.0"/>
      <point x="270" y="805" type="qcurve" smooth="yes"/>
      <point x="321.4925373134328" y="805.0"/>
      <point x="364.1194029850746" y="710.3731343283582"/>
      <point x="338" y="635" type="qcurve"/>
      <point x="147" y="635" type="line" smooth="yes"/>
      <point x="125.35820895522389" y="635.0"/>
      <point x="85.16417910447761" y="646.8059701492538"/>
      <point x="68" y="658" type="qcurve"/>
      <point x="100" y="704" type="line"/>
      <point x="109.70149253731343" y="697.2835820895523"/>
      <point x="132.82089552238807" y="691.0"/>
      <point x="147" y="691" type="qcurve" smooth="yes"/>
      <point x="304" y="691" type="line"/>
      <point x="307.7313432835821" y="720.1044776119403"/>
      <point x="283.1641791044776" y="749.0"/>
      <point x="266" y="749" type="qcurve" smooth="yes"/>
      <point x="242.86567164179104" y="749.0"/>
      <point x="188.61194029850745" y="707.2537313432836"/>
    </contour>
  </outline>
</glyph>
